<?xml version="1.0" encoding="UTF-8"?>
<svg id="Calque_2" data-name="Calque 2" xmlns="http://www.w3.org/2000/svg" viewBox="0 0 137.01 134.79">
  <defs>
    <style>
      .cls-1 {
        fill: #387187;
      }
    </style>
  </defs>
  <g id="Calque_1-2" data-name="Calque 1">
    <path class="cls-1" d="M130.74,123.28h-.8V55.35h5c2,0,2.85-2.57,1.23-3.74l-20.41-15.13L68.51,0,21.27,36.48.86,51.61c-1.63,1.17-.8,3.74,1.23,3.74h5v67.93h-.77c-3.17,0-5.74,2.57-5.74,5.74s2.57,5.77,5.74,5.77h124.42c3.17,0,5.74-2.57,5.74-5.77s-2.57-5.74-5.74-5.74ZM125.54,123.28h-28.6v-20.95c3.45-.11,10.13-.91,14.76-5.25,4.51-4.25,5.79-10.73,6.19-14.21.11-1.31-.94-2.45-2.28-2.4-3.51.14-10.05,1.03-14.59,5.28-3.97,3.74-5.45,9.19-5.97,12.82-.37-3.14-1.4-7.56-4.45-10.76-3.65-3.88-9.19-4.97-12.19-5.28-1.17-.11-2.11.8-2.08,1.94.14,3,.91,8.65,4.57,12.5,3.43,3.65,8.56,4.82,11.65,5.2-.03.06-.03.11-.03.17v20.95h-53.01v-20.95c3.45-.11,10.13-.91,14.79-5.25,4.48-4.25,5.79-10.73,6.17-14.21.11-1.31-.94-2.45-2.25-2.4-3.51.14-10.05,1.03-14.59,5.28-4,3.74-5.45,9.19-5.99,12.82-.34-3.14-1.37-7.56-4.45-10.76-3.65-3.88-9.19-4.97-12.19-5.28-1.14-.11-2.08.8-2.06,1.94.14,3,.91,8.65,4.57,12.5,3.43,3.65,8.53,4.82,11.65,5.2-.03.06-.03.11-.03.17v20.95H11.51V55.52h114.03v67.76Z"/>
  </g>
</svg>