<?xml version="1.0" encoding="UTF-8"?>
<svg id="Calque_2" data-name="Calque 2" xmlns="http://www.w3.org/2000/svg" viewBox="0 0 290.6 512">
  <defs>
    <style>
      .cls-1 {
        fill: #387187;
      }
    </style>
  </defs>
  <g id="Calque_1-2" data-name="Calque 1">
    <path class="cls-1" d="M204.34,141.95v31.35h58.27c4.39,0,8.64,1.09,12.29,3.13,7.88,4.4,12.78,12.72,12.78,21.72l-.04,79.24c0,13.69-11.14,24.83-24.83,24.83h-58.47v184.94c0,13.7-11.14,24.84-24.84,24.84h-81.99c-13.7,0-24.84-11.14-24.84-24.84v-184.93H24.84c-13.7,0-24.84-11.15-24.84-24.84v-79.25c0-13.69,11.14-24.83,24.84-24.83h47.83v-39.69c0-39.34,12.36-72.82,35.73-96.8C131.88,12.73,164.68,0,203.28,0l62.53.1c13.67.02,24.79,11.17,24.79,24.84v73.58c0,13.69-11.14,24.83-24.83,24.83l-42.1.02c-12.84,0-16.11,2.57-16.81,3.36-1.15,1.31-2.52,5.01-2.52,15.22Z"/>
  </g>
</svg>