<?xml version="1.0" encoding="UTF-8"?>
<svg id="Calque_2" data-name="Calque 2" xmlns="http://www.w3.org/2000/svg" viewBox="0 0 513.48 513.58">
  <defs>
    <style>
      .cls-1 {
        fill: #fff;
      }

      .cls-2 {
        fill: #387187;
      }
    </style>
  </defs>
  <g id="Calque_1-2" data-name="Calque 1">
    <path class="cls-2" d="M33.49,35.66C-6.74,77.45,1.49,121.84,1.49,256.71c0,112-19.54,224.28,82.73,250.71,31.94,8.21,314.9,8.21,346.79-.04,42.58-10.99,77.23-45.53,81.96-105.75.66-8.41.66-281.28-.02-289.86-5.03-64.15-44.52-101.12-96.55-108.61-11.93-1.73-14.31-2.24-75.5-2.35C123.88.93,76.31-8.74,33.49,35.66h0Z"/>
    <path class="cls-1" d="M257.45,67.78c-77.46,0-151.02-6.89-179.11,65.22-11.61,29.78-9.92,68.46-9.92,123.84,0,48.6-1.56,94.27,9.92,123.82,28.03,72.15,102.19,65.24,179.07,65.24s150.66,7.72,179.09-65.24c11.63-30.08,9.92-68.18,9.92-123.82,0-73.86,4.07-121.54-31.74-157.33-36.27-36.27-85.31-31.72-157.31-31.72h.09ZM240.51,101.85c161.58-.26,182.14-18.22,170.79,231.32-4.03,88.26-71.23,78.57-153.83,78.57-150.61,0-154.94-4.31-154.94-154.99s11.95-154.82,137.98-154.94v.04ZM358.36,133.23c-12.52,0-22.68,10.15-22.68,22.68s10.15,22.68,22.68,22.68,22.68-10.15,22.68-22.68-10.15-22.68-22.68-22.68ZM257.45,159.75c-53.61,0-97.07,43.48-97.07,97.09s43.46,97.07,97.07,97.07,97.05-43.46,97.05-97.07-43.43-97.09-97.05-97.09h0ZM257.45,193.82c83.31,0,83.41,126.04,0,126.04s-83.41-126.04,0-126.04Z"/>
  </g>
</svg>