<?xml version="1.0" encoding="UTF-8"?>
<svg id="Calque_2" data-name="Calque 2" xmlns="http://www.w3.org/2000/svg" viewBox="0 0 140.03 106.43">
  <defs>
    <style>
      .cls-1 {
        fill: #387187;
      }
    </style>
  </defs>
  <g id="Calque_1-2" data-name="Calque 1">
    <path class="cls-1" d="M140.03,53.21c0,4.64-3.76,8.4-8.4,8.4H8.4c-4.64,0-8.4-3.76-8.4-8.4s3.76-8.4,8.4-8.4h123.23c4.64,0,8.4,3.76,8.4,8.4M8.4,16.8h123.23c4.64,0,8.4-3.76,8.4-8.4s-3.76-8.4-8.4-8.4H8.4C3.76,0,0,3.76,0,8.4s3.76,8.4,8.4,8.4M131.63,89.62H8.4c-4.64,0-8.4,3.76-8.4,8.4s3.76,8.4,8.4,8.4h123.23c4.64,0,8.4-3.76,8.4-8.4s-3.76-8.4-8.4-8.4"/>
  </g>
</svg>