<?xml version="1.0" encoding="UTF-8"?>
<svg id="Calque_2" data-name="Calque 2" xmlns="http://www.w3.org/2000/svg" viewBox="0 0 105.59 106.57">
  <defs>
    <style>
      .cls-1 {
        fill-rule: evenodd;
      }

      .cls-1, .cls-2 {
        fill: #387187;
      }
    </style>
  </defs>
  <g id="Calque_1-2" data-name="Calque 1">
    <g>
      <path class="cls-1" d="M59.15,37.22H11.93c-6.58,0-11.93-5.35-11.93-11.93v-13.35C0,5.35,5.35,0,11.93,0h47.21c.75,0,1.35.61,1.35,1.35v34.51c0,.75-.61,1.35-1.35,1.35h0ZM41.32,24.2h-22.14c-.75,0-1.35-.61-1.35-1.35s.61-1.35,1.35-1.35h22.14c.75,0,1.35.61,1.35,1.35s-.61,1.35-1.35,1.35ZM41.32,15.73h-22.14c-.75,0-1.35-.61-1.35-1.35s.61-1.35,1.35-1.35h22.14c.75,0,1.35.61,1.35,1.35s-.61,1.35-1.35,1.35Z"/>
      <path class="cls-1" d="M63.2,3.81l10.78,2.9c.59.16,1,.69,1,1.31v20.36c0,.59-.38,1.11-.93,1.29l-10.85,3.53V3.81h0Z"/>
      <path class="cls-1" d="M79.25,27.21h-1.56V10.01h1.56c3.84,0,6.97,3.13,6.97,6.97v3.26c0,3.84-3.13,6.97-6.97,6.97Z"/>
      <path class="cls-1" d="M104.24,19.96h-19.37c-.75,0-1.35-.61-1.35-1.35s.61-1.35,1.35-1.35h19.37c.75,0,1.35.61,1.35,1.35s-.61,1.35-1.35,1.35Z"/>
      <path class="cls-1" d="M48.41,47.31h-9.86l.69-7.39h9.22c-.36,1.76-.37,3.8.91,5.08.39.39.5.97.29,1.47-.21.51-.7.84-1.25.84h0Z"/>
      <path class="cls-2" d="M7.13,73.65h.28s0,0,0,0h25.96l3.15-33.72H11.93c-.61,0-1.22-.04-1.81-.11l-3.88,33.93h0c.29-.07.59-.1.89-.1Z"/>
      <path class="cls-2" d="M49.08,83.2H5.81v-5.48c0-.37.14-.71.37-.97.09-.06.17-.14.26-.17.2-.14.43-.23.71-.23h33.85c2.2,0,4.22.88,5.68,2.31,1.26,1.2,2.11,2.77,2.4,4.54Z"/>
      <path class="cls-2" d="M49.19,85.91v19.3c0,.77-.6,1.37-1.34,1.37H7.15c-.74,0-1.34-.6-1.34-1.37v-19.3h43.39Z"/>
    </g>
  </g>
</svg>