<?xml version="1.0" encoding="UTF-8"?>
<svg id="Calque_2" data-name="Calque 2" xmlns="http://www.w3.org/2000/svg" viewBox="0 0 93.03 148.6">
  <defs>
    <style>
      .cls-1 {
        fill: #387187;
      }
    </style>
  </defs>
  <g id="Calque_1-2" data-name="Calque 1">
    <g>
      <path class="cls-1" d="M74.12,102.11l-12.83.03.03,11.9.07,20.58c.03,3.04-.96,5.85-2.62,8.15-.44.6-.9,1.18-1.43,1.71-2.5,2.53-5.98,4.09-9.82,4.12-6.12.02-11.32-3.92-13.2-9.41-.49-1.4-.75-2.89-.75-4.46l-.09-20.75-.04-11.74-14.17.06c-10.46.03-18.98-8.44-19.03-18.91l-.03-8.87,92.79-.31.03,8.87c.05,10.47-8.42,19.01-18.91,19.03Z"/>
      <path class="cls-1" d="M92.99,66.26L.2,66.57l-.04-10.28v-3.78S0,6.88,0,6.88C-.01,3.23,2.92.28,6.54.26l39.83-.12.03,15.2.02,3.06.05,16.19c0,2.21,1.81,3.98,3.99,3.97,2.21,0,3.98-1.78,3.97-3.99l-.07-20.98v-3.01s-.04-10.46-.04-10.46l11.93-.05v4.07s.04,2.91.04,2.91l.04,16.88c0,2.21,1.78,3.98,3.99,3.97,2.18-.01,3.95-1.79,3.94-4l-.07-20.71V.31c.2-.09.4-.18.61-.28l6.41-.02L86.18,0c3.65-.01,6.6,2.92,6.61,6.57l.2,59.69Z"/>
    </g>
  </g>
</svg>