<?xml version="1.0" encoding="UTF-8"?>
<svg id="Calque_2" data-name="Calque 2" xmlns="http://www.w3.org/2000/svg" viewBox="0 0 25 25">
  <defs>
    <style>
      .cls-1 {
        fill: #387187;
      }
    </style>
  </defs>
  <g id="Calque_1-2" data-name="Calque 1">
    <path class="cls-1" d="M24.99,18.88c-.46,3.5-3.45,6.12-6.99,6.11C8.08,25,0,16.92,0,7,0,3.47,2.61.48,6.12.01c.88-.11,1.73.38,2.08,1.19l2.64,5.89v.02c.27.62.21,1.32-.16,1.89-.02.03-.05.06-.07.1l-2.6,3.09c.94,1.9,2.93,3.88,4.85,4.81l3.04-2.59s.06-.05.09-.07c.56-.37,1.28-.44,1.9-.17h.02s5.89,2.65,5.89,2.65c.81.35,1.3,1.2,1.19,2.08"/>
  </g>
</svg>