<?xml version="1.0" encoding="UTF-8"?>
<svg id="Calque_2" data-name="Calque 2" xmlns="http://www.w3.org/2000/svg" viewBox="0 0 429.12 55.36">
  <defs>
    <style>
      .cls-1 {
        fill: #387187;
      }
    </style>
  </defs>
  <g id="Calque_1-2" data-name="Calque 1">
    <g>
      <g>
        <path class="cls-1" d="M32.96,25.15l-.3.89c.41-.18.8-.38,1.18-.59-.29-.11-.58-.21-.88-.3Z"/>
        <path class="cls-1" d="M40.4,30.02c-1.66-2.09-3.84-3.61-6.55-4.57,1.14-.63,2.18-1.36,3.09-2.2,1.21-1.12,2.17-2.45,2.86-4.02.69-1.56,1.04-3.33,1.04-5.32,0-4.56-1.8-7.92-5.39-10.08-3.6-2.16-8.27-3.23-14.03-3.23H7.14c-2.28,0-4.04.6-5.28,1.82C.62,3.63,0,5.41,0,7.74v39.88c0,2.28.62,4.04,1.86,5.28s3,1.86,5.28,1.86h15.18c6.35,0,11.4-1.38,15.17-4.13,3.77-2.75,5.66-6.63,5.66-11.64,0-3.67-.92-6.66-2.75-8.97ZM14.58,10.56h4.76c2.23,0,3.99.46,5.28,1.38,1.29.92,1.94,2.35,1.94,4.28,0,1.29-.31,2.38-.93,3.27-.62.9-1.47,1.55-2.53,1.98-1.07.42-2.32.63-3.76.63h-4.76v-11.54ZM26.15,43.23c-1.42,1.04-3.34,1.56-5.77,1.56h-5.8v-12.72h5.8c2.48,0,4.42.51,5.81,1.52,1.38,1.02,2.08,2.62,2.08,4.8s-.71,3.8-2.12,4.84Z"/>
        <path class="cls-1" d="M122.64,51.94c-4.12-2.28-7.35-5.52-9.71-9.71-2.36-4.19-3.53-9.04-3.53-14.55s1.18-10.35,3.53-14.54c2.36-4.19,5.59-7.43,9.71-9.71C126.76,1.15,131.37,0,136.48,0c3.37,0,6.57.51,9.6,1.53,3.02,1.02,5.46,2.34,7.29,3.98,1.29,1.14,2.12,2.32,2.49,3.53.37,1.22.19,2.42-.56,3.61-.55.94-1.39,1.52-2.53,1.75-1.14.22-2.43.06-3.87-.48-.4-.15-.82-.3-1.26-.45-1.74-.64-3.4-1.17-4.98-1.56-1.59-.4-3.2-.6-4.84-.6-2.63,0-4.96.58-6.99,1.75-2.03,1.17-3.63,2.95-4.8,5.36-1.17,2.41-1.75,5.39-1.75,8.96s.58,6.42,1.75,8.85c1.16,2.43,2.8,4.27,4.91,5.5,2.11,1.24,4.55,1.86,7.33,1.86,1.83,0,3.55-.25,5.13-.74,1.59-.5,3.57-1.21,5.95-2.16,1.39-.55,2.65-.71,3.79-.48,1.14.22,2.01.81,2.6,1.75.74,1.14.93,2.33.56,3.57-.37,1.24-1.2,2.43-2.49,3.57-2.03,1.79-4.64,3.27-7.81,4.46-3.17,1.19-6.35,1.79-9.52,1.79-5.11,0-9.72-1.14-13.84-3.42Z"/>
        <path class="cls-1" d="M208.1,13.06c-2.36-4.19-5.62-7.41-9.78-9.67-4.17-2.26-8.96-3.39-14.36-3.39s-10.2,1.13-14.36,3.39c-4.17,2.26-7.43,5.48-9.79,9.67-2.35,4.19-3.53,9.07-3.53,14.62s1.18,10.43,3.53,14.62c2.36,4.19,5.62,7.42,9.79,9.67,4.16,2.26,8.95,3.39,14.36,3.39s10.19-1.13,14.36-3.39c4.16-2.25,7.42-5.48,9.78-9.67,2.36-4.19,3.53-9.06,3.53-14.62s-1.17-10.43-3.53-14.62ZM169.13,12.91c-.2-.99.43-1.96,1.43-2.16l10.86-2.22,1.92,9.41c.12.6.71.98,1.31.86.6-.12.98-.71.86-1.31l-1.92-9.4,3.26-.67,1.33,6.51c.12.6.7.99,1.3.87.6-.13.99-.71.87-1.31l-1.33-6.51,3.27-.67c.99-.2,1.95.44,2.16,1.43l3.32,16.29-25.31,5.17-3.33-16.29ZM194.59,34.85l-3.5.72.66,3.24,1.15,5.62c.17.83.06,1.65-.27,2.37-.09.19-.18.37-.3.54-.54.83-1.41,1.45-2.45,1.67-1.68.34-3.31-.45-4.12-1.85-.21-.35-.37-.75-.45-1.18l-1.17-5.66-.65-3.2-3.87.79c-2.85.58-5.64-1.26-6.23-4.12l-.49-2.42,25.32-5.17.49,2.42c.59,2.86-1.26,5.65-4.12,6.23Z"/>
        <path class="cls-1" d="M103.59,1.9c-1.24-.87-2.86-1.3-4.84-1.3h-1.19c-1.98,0-3.6.43-4.83,1.3-1.25.87-1.87,2.27-1.87,4.2v32.13c.29-.19.62-.34,1.01-.4l.15-.02h.18c.71,0,1.33.31,1.84.93l.07.08.06.09c.46.68.69,1.46.88,2.08l.05.18c1.08,3.53.46,7.53-1.6,10.44-.16.23-.32.42-.48.62-.24.29-.51.56-.79.82.15.15.32.28.5.41,1.23.87,2.85,1.3,4.83,1.3h1.19c1.98,0,3.6-.43,4.84-1.3,1.24-.87,1.86-2.27,1.86-4.21V6.1c0-1.93-.62-3.33-1.86-4.2Z"/>
        <path class="cls-1" d="M93.19,41.75c-.18-.59-.36-1.25-.68-1.73-.1-.12-.19-.23-.34-.21-.33.05-.65.54-.94,1.11-.13.26-.26.54-.37.79-.16.36-.3.67-.42.82-.91,1.23-2.33,2.25-3.93,1.95-2.18-.42-3.68-2.91-4.71-4.71-.67-1.16-1.23-2.39-1.72-3.64-.11-.3-1.39-3.56-1.22-3.65.5-.25.99-.52,1.46-.81,2.28-1.39,4.1-3.23,5.47-5.54,1.36-2.31,2.04-5.02,2.04-8.15,0-3.47-.79-6.53-2.38-9.19-1.59-2.65-3.9-4.71-6.96-6.17-3.05-1.46-6.68-2.2-10.89-2.2h-14.29c-2.28,0-4.04.61-5.28,1.83-1.24,1.21-1.86,2.98-1.86,5.32v41.51c0,1.94.62,3.34,1.86,4.21,1.24.86,2.85,1.3,4.83,1.3h1.19c1.99,0,3.6-.44,4.84-1.3,1.24-.87,1.86-2.27,1.86-4.21v-13.24h4.07c.59,1.94,1.47,4.07,2.63,6.4,1.68,3.37,3.78,6.27,6.28,8.7,1.69,1.65,3.76,3.02,6.11,3.48,3.77.73,8.58-.22,11.32-3.12.11-.11.21-.22.31-.34.14-.17.27-.33.4-.51,1.76-2.48,2.2-5.81,1.32-8.7ZM70.76,24.12c-1.47,1.27-3.49,1.9-6.07,1.9h-3.94v-15.03h3.94c2.63,0,4.67.57,6.1,1.71,1.44,1.14,2.16,3,2.16,5.58s-.73,4.58-2.19,5.84Z"/>
      </g>
      <path class="cls-1" d="M309.66,48.45l-15.78-42.11c-1.43-3.77-3.86-5.65-7.29-5.65h-.89c-3.42,0-5.85,1.88-7.29,5.65l-15.77,42.11c-.9,2.28-.88,3.92.03,4.91.92.99,2.27,1.49,4.06,1.49h1.19c1.73,0,3.17-.42,4.31-1.27,1.14-.84,2.06-2.25,2.76-4.24l1.45-4.16h16.57l1.4,4.16c.69,2.04,1.72,3.46,3.08,4.28,1.37.82,3.17,1.23,5.4,1.23h1.19c2.18,0,3.88-.5,5.09-1.49,1.22-.99,1.38-2.63.49-4.91ZM279.82,35.51l5.07-14.52,4.88,14.52h-9.95Z"/>
      <path class="cls-1" d="M403.13,13.25c-2.31-4.07-5.54-7.18-9.68-9.34-4.14-2.16-8.94-3.23-14.39-3.23h-14.29c-2.28,0-4.04.6-5.28,1.82-1.24,1.21-1.86,2.99-1.86,5.32v30.67c.33-.28.74-.5,1.24-.58l.15-.02h.18c.71,0,1.33.31,1.84.93l.07.08.06.09c.46.68.69,1.46.88,2.08l.05.18c1.08,3.53.47,7.53-1.6,10.44-.16.23-.32.42-.48.62-.18.21-.37.42-.57.62.01.02.02.03.04.05,1.24,1.24,3,1.86,5.28,1.86h14.29c5.4,0,10.19-1.09,14.36-3.27,4.16-2.19,7.4-5.32,9.71-9.42,2.3-4.09,3.45-8.91,3.45-14.47s-1.15-10.36-3.45-14.43ZM390.48,49l-7.13,1.56c-1.53.34-2.95-.21-3.17-1.23-.11-.5.09-1.03.53-1.47.42-.45,1.07-.8,1.83-.97l.88-.19-1.24-5.59-.03-.16-1.33-6.01-1.19-5.4h.02s-.7-3.22-.7-3.22c-.16-.7.56-1.44,1.6-1.67l1.76-.38c1.04-.23,2,.14,2.15.84l.75,3.36,1.56,7.12h-.01l.95,4.31,1.23,5.59.73-.16c1.52-.34,2.94.21,3.16,1.23.22,1.01-.84,2.1-2.35,2.44ZM388.27,33.51l-1.2-5.46-.74-3.35c-.37-1.65-2.29-2.59-4.4-2.13l-1.75.39c-1.11.24-2.07.84-2.63,1.65-.46.66-.63,1.42-.47,2.11l.34,1.53h-.02l1.6,7.3-7.59,1.67-2.52-11.41c-1.33-6.08.59-12.57,5.15-17.37l3.39-3.58,4.38,1.9c5.9,2.57,10.02,7.43,11.33,13.36l2.59,11.75-7.46,1.64Z"/>
      <path class="cls-1" d="M416.4,53.55c-1.24-.87-1.86-2.27-1.86-4.2V6.19c0-1.93.62-3.33,1.86-4.2,1.24-.87,2.85-1.3,4.84-1.3h1.19c1.98,0,3.6.44,4.84,1.3,1.24.87,1.86,2.27,1.86,4.2v43.15c0,1.93-.62,3.34-1.86,4.2-1.24.87-2.85,1.3-4.84,1.3h-1.19c-1.98,0-3.6-.43-4.84-1.3Z"/>
      <path class="cls-1" d="M360.19,41.84c-.18-.59-.36-1.25-.68-1.73-.1-.12-.19-.23-.34-.21-.33.05-.65.54-.94,1.11-.23.45-.43.94-.6,1.28-.07.14-.13.25-.19.33-.91,1.23-2.33,2.25-3.93,1.95-2.18-.42-3.68-2.91-4.71-4.71-.67-1.16-1.23-2.39-1.72-3.64-.11-.3-1.39-3.56-1.22-3.65.5-.25.99-.52,1.46-.81,2.28-1.39,4.1-3.23,5.47-5.54,1.36-2.31,2.04-5.02,2.04-8.15,0-3.47-.79-6.53-2.38-9.19-1.59-2.65-3.9-4.71-6.96-6.17-3.05-1.46-6.68-2.2-10.89-2.2h-14.29c-2.28,0-4.04.61-5.28,1.83-1.24,1.21-1.86,2.98-1.86,5.32v41.51c0,1.94.62,3.34,1.86,4.21,1.24.86,2.85,1.3,4.83,1.3h1.19c1.99,0,3.6-.44,4.84-1.3,1.24-.87,1.86-2.27,1.86-4.21v-13.24h4.07c.59,1.94,1.47,4.07,2.63,6.4,1.68,3.37,3.78,6.27,6.28,8.7,1.69,1.65,3.76,3.02,6.11,3.48,3.83.74,8.74-.26,11.46-3.27.06-.06.12-.13.17-.19.14-.17.27-.33.4-.51,1.76-2.48,2.2-5.81,1.32-8.7ZM337.76,24.21c-1.47,1.27-3.49,1.9-6.07,1.9h-3.94v-15.03h3.94c2.63,0,4.67.57,6.1,1.71,1.44,1.14,2.16,3,2.16,5.58s-.73,4.58-2.19,5.84Z"/>
      <path class="cls-1" d="M261.88,6.19c0,6.16,0,12.31,0,18.47,0,6.93.7,14.51-2.53,20.9-.7,1.39-1.54,2.62-2.53,3.71-3.37,3.72-8.18,5.58-14.43,5.58-1.36,0-2.51-.18-3.46-.54-.87-.15-1.7-.37-2.49-.65-5.99-2.15-9.77-6.99-7.01-13.34,1.5-3.3,5.13-5.36,8.6-5.46.61-.02,1.3-.07,1.85.09.14.05.28.1.31.25-.13.86-1.7,1.66-2.47,3.28-.33.65-.53,1.38-.53,2.11,0,1.31.56,2.6,1.66,3.36,2.37,1.65,4.79.18,6.26-1.89,1.68-2.36,2.19-5.2,2.19-8.04V6.19c0-1.93.62-3.33,1.86-4.2,1.24-.87,2.85-1.3,4.84-1.3h1.19c1.98,0,3.59.43,4.83,1.3s1.86,2.27,1.86,4.2Z"/>
    </g>
  </g>
</svg>