<?xml version="1.0" encoding="UTF-8"?>
<svg id="Calque_2" data-name="Calque 2" xmlns="http://www.w3.org/2000/svg" viewBox="0 0 256.96 256.96">
  <defs>
    <style>
      .cls-1 {
        fill: #387187;
      }

      .cls-2 {
        fill: none;
        stroke: #387187;
        stroke-miterlimit: 10;
      }
    </style>
  </defs>
  <g id="Calque_1-2" data-name="Calque 1">
    <g>
      <path class="cls-1" d="M188.82,82.76l-2.61,8.83h.02s2.61-8.82,2.61-8.82h-.02ZM193.49,77.17c-.06,0-.11,0-.16.01h.16c.2,0,.39.01.58.04-.2-.04-.39-.05-.58-.05Z"/>
      <path class="cls-1" d="M71.55,50.57c-.07.05-.14.1-.21.15l-.02-.1.23-.05Z"/>
      <path class="cls-1" d="M71.55,50.57c-.07.05-.14.1-.21.15l-.02-.1.23-.05Z"/>
      <path class="cls-2" d="M128.48,256.46C57.91,256.46.5,199.05.5,128.48S57.91.5,128.48.5s127.98,57.41,127.98,127.98-57.41,127.98-127.98,127.98Z"/>
      <g>
        <path class="cls-1" d="M63.58,46.86c-.21-.03-.4-.16-.56-.38l-9.22-12.76c-.16-.22-.22-.44-.19-.65.03-.21.16-.4.38-.56l3.15-2.28c1.44-1.04,2.76-1.55,3.96-1.53,1.2.02,2.22.61,3.05,1.76.4.56.65,1.13.73,1.72.08.59.04,1.17-.14,1.73-.18.56-.45,1.1-.82,1.63l-.1-.1c1.24-.64,2.39-.84,3.45-.61,1.06.23,1.97.86,2.72,1.9.86,1.19,1.11,2.43.74,3.71-.37,1.28-1.3,2.46-2.79,3.54l-3.72,2.68c-.22.16-.44.22-.65.19ZM63.64,45.61l3.46-2.5c1.15-.83,1.87-1.72,2.14-2.65s.07-1.87-.6-2.81c-.69-.96-1.54-1.48-2.54-1.57-1-.09-2.1.31-3.31,1.18l-3.21,2.32-.7-.97,2.86-2.07c.56-.4,1.01-.88,1.35-1.43.34-.55.51-1.14.52-1.76,0-.62-.2-1.22-.61-1.79-.66-.91-1.42-1.38-2.28-1.42-.87-.04-1.86.35-2.99,1.17l-2.72,1.97v-.65s9.44,13.08,9.44,13.08l-.8-.08Z"/>
        <path class="cls-1" d="M76.59,38.09c-.17-.03-.3-.14-.41-.34l-7.32-14.18c-.12-.24-.15-.46-.09-.67.07-.2.22-.37.46-.49l3.6-1.86c1.11-.57,2.14-.88,3.1-.94.95-.05,1.8.14,2.53.58.73.44,1.33,1.12,1.8,2.03.44.85.64,1.67.59,2.45-.05.78-.29,1.5-.72,2.16-.43.66-1.01,1.24-1.74,1.76l-.19-.95,7.37,4.92c.3.2.45.4.45.58,0,.18-.13.34-.39.47l-.11.06c-.24.12-.53.14-.85.05-.33-.09-.66-.24-1-.44-.34-.2-.78-.5-1.32-.88l-5.18-3.65.84.21-3.92,2.03-.55-1.07,3.05-1.57c1.29-.67,2.13-1.46,2.51-2.36.38-.91.29-1.9-.27-2.98s-1.31-1.72-2.25-1.93c-.94-.21-2.07.03-3.38.7l-3.09,1.6.12-.66,7.39,14.31c.1.2.12.37.06.53-.07.15-.2.28-.4.38l-.13.07c-.2.1-.38.14-.55.11Z"/>
        <path class="cls-1" d="M90.89,31.36c-.16-.05-.28-.17-.36-.36l-5.79-15.16c-.07-.19-.07-.36.02-.51s.23-.26.43-.33l.16-.06c.21-.08.39-.1.54-.05.15.04.27.17.35.38l5.79,15.16c.07.19.07.36-.02.51-.09.15-.23.26-.43.33l-.16.06c-.19.07-.37.09-.54.04Z"/>
        <path class="cls-1" d="M100.4,27.37c-1.36-.42-2.54-1.19-3.56-2.33-1.01-1.14-1.74-2.57-2.17-4.29-.43-1.72-.47-3.32-.12-4.81.35-1.48,1.03-2.73,2.03-3.74,1-1.01,2.23-1.7,3.69-2.07.95-.24,1.88-.34,2.81-.31s1.76.18,2.5.46c.22.08.37.19.46.34.09.15.1.33.03.52-.05.14-.15.25-.31.31-.16.06-.33.07-.53.02-.18-.05-.36-.1-.55-.13-.66-.15-1.34-.22-2.02-.22-.69,0-1.35.08-1.98.24-1.18.3-2.17.86-2.97,1.7-.8.84-1.34,1.88-1.61,3.14-.27,1.26-.22,2.63.16,4.12.38,1.49.98,2.72,1.81,3.7.83.98,1.8,1.65,2.92,2.01,1.11.36,2.26.4,3.44.1.71-.18,1.41-.47,2.09-.89.68-.41,1.3-.89,1.88-1.45.15-.14.3-.21.47-.23.17-.02.31.03.42.13.13.13.2.28.2.46,0,.17-.07.35-.22.54-.55.63-1.23,1.19-2.04,1.68-.81.48-1.67.84-2.59,1.07-1.46.37-2.87.34-4.23-.07Z"/>
        <path class="cls-1" d="M116.17,24.22c-1.28-.64-2.32-1.61-3.11-2.9-.8-1.29-1.27-2.83-1.4-4.6-.14-1.77.09-3.36.68-4.76.59-1.4,1.47-2.52,2.63-3.35,1.16-.83,2.51-1.3,4.04-1.42,1.53-.12,2.94.14,4.21.78,1.28.64,2.32,1.61,3.11,2.9.8,1.29,1.27,2.83,1.4,4.6.14,1.77-.09,3.36-.68,4.76-.59,1.4-1.47,2.52-2.63,3.35-1.16.83-2.51,1.3-4.04,1.42-1.53.12-2.94-.14-4.21-.78ZM123.47,22.56c.93-.69,1.63-1.64,2.1-2.83s.64-2.57.52-4.12c-.12-1.55-.5-2.88-1.15-3.99s-1.49-1.94-2.51-2.48c-1.03-.54-2.14-.76-3.34-.67s-2.26.48-3.18,1.17c-.93.69-1.63,1.63-2.1,2.83-.48,1.2-.66,2.57-.54,4.12s.5,2.88,1.15,3.99c.65,1.11,1.49,1.94,2.51,2.48,1.03.54,2.14.76,3.34.67s2.26-.48,3.19-1.17Z"/>
        <path class="cls-1" d="M138.67,24.77c-.11-.13-.16-.28-.13-.45.02-.16.08-.28.17-.38.09-.09.22-.14.38-.13.82.01,1.53-.1,2.12-.32s1.07-.6,1.43-1.11c.36-.51.59-1.18.7-2l1.53-11.61c.03-.22.11-.37.25-.45.14-.08.32-.1.54-.07l.17.02c.21.03.37.1.49.22.12.12.17.29.14.49l-1.52,11.52c-.22,1.65-.82,2.87-1.81,3.66-.99.79-2.32,1.07-3.99.85-.21-.03-.37-.1-.48-.23Z"/>
        <path class="cls-1" d="M148.1,25.92c-.06-.16,0-.35.15-.57l9.77-14.02c.26-.38.59-.52.98-.42l.09.02c.39.1.6.38.63.83l1.73,17.01c.03.27-.03.46-.18.56s-.34.12-.57.06l-.16-.04c-.23-.06-.41-.16-.53-.29-.12-.13-.19-.31-.19-.55l-1.54-16.32.74.02-9.42,13.64c-.13.2-.27.33-.42.39-.15.06-.31.07-.5.02l-.16-.04c-.2-.05-.33-.16-.39-.31ZM152.27,20.84l7.69,2-.3,1.14-7.69-2,.3-1.14Z"/>
        <path class="cls-1" d="M165.16,30.89c-.08-.15-.08-.33,0-.53l6.32-14.65c.11-.25.26-.41.46-.49.2-.08.42-.06.67.04l3.72,1.61c1.15.49,2.04,1.09,2.69,1.8.64.71,1.03,1.48,1.15,2.33.12.85-.02,1.74-.42,2.68-.38.88-.89,1.55-1.52,2.01-.63.46-1.34.73-2.13.81-.78.08-1.61,0-2.46-.23l.61-.75.87,8.82c.03.36-.02.6-.16.71-.14.11-.35.11-.61,0l-.11-.05c-.25-.11-.44-.32-.58-.63-.14-.31-.23-.66-.29-1.05-.06-.39-.11-.92-.15-1.58l-.46-6.32.37.79-4.06-1.75.48-1.1,3.15,1.36c1.34.58,2.48.72,3.42.44.94-.28,1.65-.98,2.13-2.1.48-1.12.5-2.1.06-2.97-.44-.86-1.33-1.58-2.69-2.17l-3.2-1.38.58-.32-6.38,14.79c-.09.21-.21.33-.37.38-.16.04-.34.02-.55-.07l-.13-.06c-.21-.09-.35-.21-.43-.36Z"/>
        <path class="cls-1" d="M179.06,37.17c-.05-.21,0-.43.15-.66l8.48-13.27c.15-.23.32-.37.54-.41.21-.05.43,0,.66.15l4,2.56c1.44.92,2.5,2.03,3.18,3.31.68,1.29.95,2.67.81,4.13-.14,1.47-.68,2.94-1.62,4.41-.94,1.47-2.05,2.58-3.33,3.33-1.28.75-2.64,1.09-4.1,1.02-1.46-.07-2.91-.56-4.35-1.48l-4-2.56c-.23-.15-.37-.32-.41-.53ZM180.3,36.72l3.82,2.44c1.2.77,2.39,1.17,3.58,1.2,1.18.03,2.3-.28,3.36-.93,1.05-.65,1.99-1.62,2.81-2.9s1.3-2.54,1.46-3.77c.15-1.23-.04-2.38-.57-3.44-.53-1.06-1.39-1.97-2.59-2.74l-3.78-2.42.77-.22-8.75,13.69-.1-.92Z"/>
        <path class="cls-1" d="M194.42,47.94c-.04-.17,0-.33.14-.49l10.36-12.48c.13-.16.29-.24.46-.23s.34.08.5.21l.13.11c.17.14.28.29.31.45s-.02.32-.16.49l-10.36,12.48c-.13.16-.29.24-.46.23s-.34-.08-.5-.21l-.13-.11c-.16-.13-.26-.28-.3-.45Z"/>
      </g>
      <path class="cls-1" d="M128.48,32c-17.73,0-35.06,4.85-50.13,14.03-.89.54-1.76,1.09-2.63,1.66.21-.03.41-.04.61-.04.37,0,.74.05,1.09.13.48-.3.96-.6,1.45-.9,14.91-9.08,32.06-13.88,49.61-13.88,22.78,0,43.71,8.01,60.13,21.37.27-.2.55-.4.84-.61-16.63-13.6-37.86-21.76-60.97-21.76ZM213.3,82.53l-.41,1.38c7.07,13.31,11.07,28.48,11.07,44.57,0,52.65-42.83,95.48-95.48,95.48s-95.48-42.83-95.48-95.48c0-17.52,4.67-34.2,13.21-48.63l-.3-1.47c-8.99,14.8-13.91,32.01-13.91,50.1,0,53.2,43.28,96.48,96.48,96.48s96.48-43.28,96.48-96.48c0-16.63-4.23-32.28-11.66-45.95Z"/>
      <g>
        <path class="cls-1" d="M65.63,115.73c-1.41-.8-3.21-2.74-4.12-4.17-.97-1.48-1.48-2.87-1.61-4.7-.33-3.26.87-6.46,3-8.81l1.36,6.65c.25,1.21.79,2.3,1.54,3.21-.53,1.9.27,3.94.68,5.9.33,1.41.47,2.73-.85,1.92Z"/>
        <path class="cls-1" d="M79,88.98l-4.82.98.91,4.47,1.58,7.73c.24,1.14.08,2.27-.37,3.26-.12.26-.25.51-.41.75-.75,1.14-1.94,1.99-3.38,2.29-2.3.47-4.55-.62-5.67-2.54-.29-.49-.5-1.03-.62-1.62l-1.6-7.79-.9-4.41-5.32,1.09c-3.93.8-7.77-1.74-8.58-5.67l-.68-3.33,34.85-7.12.68,3.33c.81,3.93-1.73,7.78-5.67,8.58Z"/>
        <g>
          <path class="cls-1" d="M198.01,106.52c-.13,1.83-.64,3.22-1.62,4.7-.91,1.42-2.7,3.36-4.11,4.17-1.32.8-1.19-.52-.85-1.93.43-2.1,1.33-4.31.54-6.32l1.95-6.59h.01l.9-3.03c2.24,2.36,3.52,5.64,3.18,9Z"/>
          <path class="cls-1" d="M211.93,80.1c-.03.1-.06.21-.09.31l-.3,1.03-4.79,16.23-11-3.24,3.41-11.55c.11-.38.17-.77.17-1.16v-.02c0-.14,0-.29-.03-.42-.01-.1-.03-.21-.05-.3v-.02c-.02-.12-.05-.24-.09-.35-.02-.09-.05-.19-.09-.28-.06-.17-.14-.34-.23-.51-.04-.07-.07-.13-.12-.2-.05-.08-.1-.16-.16-.24-.02-.03-.05-.07-.07-.1-.05-.06-.1-.11-.14-.17-.07-.08-.14-.15-.22-.23-.07-.08-.15-.15-.24-.22-.08-.07-.17-.13-.26-.2-.09-.06-.18-.12-.27-.18-.19-.11-.39-.21-.6-.29-.11-.04-.21-.08-.32-.11l-1.8-.53c-.09-.03-.19-.05-.28-.07-.1-.02-.2-.04-.29-.05-.19-.03-.38-.04-.58-.04h-.16c-.06,0-.11,0-.17.01-.09.01-.19.02-.28.04-.13,0-.26.04-.39.08-.09.02-.18.05-.28.08-.1.03-.19.07-.29.11-.1.04-.2.09-.29.14-.1.05-.19.1-.28.16h0c-.08.06-.17.12-.25.18-.17.12-.34.26-.48.42-.07.08-.14.16-.21.24-.07.08-.13.16-.2.25-.14.2-.26.41-.35.63-.04.07-.07.14-.1.21-.04.1-.08.21-.11.32l-.8,2.72-2.61,8.83h-.02s-12.05-3.56-12.05-3.56l4.95-16.76c1.87-6.32,5.83-11.8,11.09-15.59.28-.21.56-.4.85-.59,1.92-1.3,4.01-2.37,6.23-3.18l6.52-2.39,3.87,5.51c5.16,7.33,6.7,16.44,4.26,25.05Z"/>
          <path class="cls-1" d="M197.24,82.3l-1.54,5.22-1.87,6.33-.66,2.22-.73,2.48h-.01l-1.91,6.46-3.52,11.92,2.61.77c1.07.31,1.68,1.44,1.36,2.51l-.53,1.81c-.32,1.07-1.44,1.68-2.51,1.37l-10.36-3.06c.25-1.53.42-3.08.55-4.59.04-.45.07-.91.1-1.37.12,0,.24.03.35.07l2.74.81,3.53-11.97,2.75-9.31,2.48-8.38h.02s1.47-4.97,1.47-4.97c.31-1.07,1.44-1.68,2.51-1.36l1.81.53c1.07.32,1.68,1.44,1.36,2.51Z"/>
          <path class="cls-1" d="M183.51,156.41c2.01-.18,4.19-.61,6.17-1.22,10.61-3.26,19.71-12.21,18.77-23.52-.62-7.38-10.37-13.83-16.19-6.47-.46.58-2.03,3.91-.33,3.54.75-.17,2.24-1.05,3.45-1.08,1.61-.17,2.93,1.12,3.19,2.62.48,2.29-.54,5.14-2.2,6.98-4.93,5.63-12.33,2.14-17.9-.44-1.7-.75-3.59-1.23-5.33-1.75-2.48-.77.18-3.34.91-4.69,1.22-1.96,1.89-3.46,2.51-5.53.24-.83.45-1.67.63-2.53.15-.65.27-1.31.38-1.98.25-1.53.42-3.08.55-4.59.04-.45.07-.91.1-1.37.04-.66.09-1.33.16-2,.17-1.83.51-3.64,1.44-5.12.66-1.08,1.55-2.1,2.61-2.84l3.11-10.56c-1.91.01-3.83.36-5.58.97-5.67,1.93-9.49,7.08-11.73,12.37-2.05,4.62-3.02,9.79-5.99,14.01-2.55,3.9-5.07,5.59-9.18,6.65,5.84-6.78,9.45-16.05,9.45-26.27,0-20.81-14.94-37.68-33.37-37.68s-33.36,16.87-33.36,37.68c0,10.5,3.81,20,9.94,26.83-4.63-1.04-7.33-2.7-10.05-6.86-2.98-4.23-3.94-9.39-6-14.02-2.23-5.29-6.05-10.44-11.73-12.37-.23-.08-.46-.16-.7-.23l1.39,6.83c.37,1.83.04,3.68-.93,5.27.14.18.26.37.38.56,1.51,2.4,1.47,5.64,1.71,8.5.24,3.01.7,6.17,1.56,9.1.61,2.06,1.29,3.56,2.51,5.52.73,1.35,3.39,3.92.9,4.7-1.73.52-3.63,1-5.32,1.75-5.57,2.58-12.97,6.07-17.9.43-1.66-1.83-2.69-4.68-2.2-6.98.26-1.49,1.57-2.78,3.18-2.62,1.22.04,2.71.92,3.46,1.08,1.7.38.13-2.95-.33-3.53-5.82-7.37-15.58-.92-16.19,6.46-.95,11.31,8.16,20.27,18.77,23.53,1.98.61,4.16,1.03,6.16,1.22,1.24.11,2.38.13,2.71.36.55.31-.87,1.32-1.28,1.67-1.33,1.08-2.59,2.21-3.71,3.39-6.27,6.31-11.17,19.74-6.4,28.26,4.58,7.78,15.21,9.68,22.42,2.08,1.08-1.14,3.69-4.94,3.3-6.45-.13-.44-1.71.57-2.42,1.05-2.24,1.48-4.51,3.02-7.27,2.99-4.45.09-7.98-3.91-7.41-8.42.55-5.34,6.4-6.51,10.84-7.53,4.12-.9,7.48-1.54,11.39-2.99.9-.27,2.99-1.23,2.52.56-.38,1.3-.98,2.66-1.33,3.99-1.07,3.7-1.17,8.13-.66,12.01,1.09,8.71,8.05,18.51,17.42,19.61,7.99.99,17.27-6.08,13.59-14.55-1.51-3.3-5.13-5.36-8.6-5.46-.61-.02-1.3-.07-1.85.09-.15.05-.29.1-.31.25.12.86,1.69,1.66,2.46,3.29.33.64.53,1.37.53,2.1-.12,4.42-5.49,3.66-7.82,1.3-1.34-1.2-2.13-2.87-2.54-4.53-.84-3.31-.38-6.99,1.79-9.68,1.98-2.38,4.87-3.85,7.46-5.49,2.95-1.88,5.96-4.39,7.91-7.17.95-1.2,1.71-2.71,1.84-4.27.2,1.44.92,2.82,1.81,3.92,1.95,2.79,4.95,5.3,7.91,7.18,2.58,1.63,5.47,3.1,7.46,5.48,2.17,2.69,2.62,6.38,1.79,9.68-.36,1.45-1.03,2.9-2.09,4.04-.15.17-.28.34-.45.5-2.33,2.35-7.7,3.12-7.83-1.31,0-.72.2-1.45.53-2.1.77-1.63,2.34-2.43,2.47-3.28-.03-.15-.16-.2-.31-.26-.55-.15-1.24-.11-1.85-.08-3.47.09-7.1,2.16-8.6,5.45-3.68,8.47,5.6,15.54,13.59,14.56,2.52-.3,4.85-1.24,6.96-2.6,5.72-3.71,9.66-10.65,10.46-17.01.51-3.89.4-8.32-.67-12.02-.34-1.32-.95-2.69-1.32-3.99-.47-1.79,1.61-.82,2.51-.56,3.92,1.46,7.28,2.09,11.39,3,4.45,1.01,10.3,2.18,10.85,7.52.57,4.52-2.96,8.51-7.41,8.42-2.76.04-5.03-1.51-7.27-2.98-.71-.49-2.29-1.49-2.42-1.06-.39,1.51,2.22,5.32,3.3,6.45,7.21,7.6,17.84,5.71,22.42-2.08,4.77-8.51-.13-21.95-6.4-28.25-1.12-1.19-2.38-2.32-3.71-3.39-.41-.36-1.83-1.36-1.29-1.67.34-.24,1.48-.25,2.71-.37ZM116.95,103.67c-2.48,0-4.5-3.58-4.5-8s2.02-8,4.5-8,4.5,3.58,4.5,8-2.01,8-4.5,8ZM140.95,103.67c-2.48,0-4.5-3.58-4.5-8s2.02-8,4.5-8,4.5,3.58,4.5,8-2.01,8-4.5,8Z"/>
          <path class="cls-1" d="M83.38,74.09l-34.85,7.12-.79-3.86-.29-1.42-3.5-17.14c-.28-1.37.6-2.7,1.96-2.98l14.96-3.05,1.16,5.71.24,1.15,1.24,6.08c.17.83.98,1.36,1.8,1.19.83-.17,1.36-.97,1.19-1.8l-1.61-7.88-.23-1.13-.8-3.93,4.48-.92.31,1.53.23,1.09,1.29,6.34c.17.83.97,1.36,1.8,1.19.82-.17,1.35-.97,1.18-1.8l-1.59-7.78-.22-1.08c.07-.05.14-.1.21-.15l2.41-.49,1.86-.38c1.37-.28,2.7.6,2.98,1.97l4.58,22.42Z"/>
        </g>
      </g>
      <g>
        <path class="cls-1" d="M11.67,155.4c.11-.19.29-.32.55-.39l15.18-4.17c.26-.07.49-.06.67.05.19.11.32.29.39.55l1.03,3.75c.47,1.71.49,3.13.05,4.24-.44,1.12-1.35,1.86-2.72,2.24-.66.18-1.29.21-1.87.08-.58-.13-1.11-.38-1.57-.74-.46-.36-.88-.81-1.24-1.34l.13-.06c.16,1.38-.05,2.53-.63,3.45-.59.92-1.5,1.54-2.73,1.88-1.42.39-2.67.19-3.74-.6-1.07-.79-1.85-2.08-2.34-3.85l-1.22-4.42c-.07-.26-.06-.49.05-.67ZM12.82,155.9l1.13,4.12c.38,1.37.96,2.35,1.74,2.93.78.58,1.73.72,2.84.41,1.14-.31,1.93-.92,2.36-1.83s.45-2.08.05-3.51l-1.05-3.82,1.16-.32.94,3.4c.18.66.47,1.25.87,1.76.4.51.89.88,1.47,1.1.58.22,1.21.24,1.89.05,1.08-.3,1.79-.84,2.12-1.64s.32-1.87-.05-3.21l-.89-3.24.61.23-15.55,4.28.35-.72Z"/>
        <path class="cls-1" d="M17.15,173.19c.08-.14.26-.23.53-.25l17.03-1.47c.46-.04.77.12.94.48l.04.09c.17.36.09.7-.24,1.01l-11.97,12.21c-.19.2-.37.27-.55.22s-.31-.18-.42-.4l-.07-.15c-.1-.22-.14-.42-.12-.59.02-.18.12-.34.3-.5l11.56-11.62.46.58-16.51,1.49c-.24.02-.43,0-.57-.08-.14-.08-.25-.2-.33-.37l-.07-.15c-.09-.19-.09-.35,0-.5ZM23.72,173.15l3.38,7.19-1.06.5-3.38-7.19,1.06-.5Z"/>
        <path class="cls-1" d="M28.21,193.97c-.24-.83-.34-1.64-.3-2.43.01-.18.07-.32.17-.41.1-.09.24-.14.4-.16.17,0,.31.05.4.16.09.11.15.25.18.43.05.78.19,1.51.41,2.2.22.68.51,1.29.87,1.82.44.65.95,1.12,1.53,1.44.58.31,1.16.45,1.76.42.6-.03,1.17-.24,1.71-.61.66-.45,1.07-1.09,1.23-1.9.16-.81.07-1.87-.28-3.19l-.14-.54c-.27-1.02-.4-1.91-.39-2.69,0-.77.16-1.45.46-2.04.3-.58.75-1.08,1.36-1.5.76-.53,1.56-.8,2.39-.83.83-.03,1.62.17,2.38.6.76.43,1.41,1.04,1.96,1.83.45.66.79,1.36,1.02,2.09.23.74.32,1.48.29,2.22-.01.18-.07.32-.17.41-.1.09-.24.14-.4.16-.15,0-.28-.04-.4-.15-.11-.11-.17-.25-.19-.44-.05-.66-.17-1.29-.35-1.88s-.44-1.13-.78-1.62c-.62-.9-1.35-1.46-2.21-1.68-.86-.23-1.69-.06-2.49.49-.62.43-1.01,1-1.17,1.73s-.08,1.68.24,2.88l.14.54c.43,1.64.54,3.01.33,4.09-.22,1.08-.81,1.95-1.77,2.62-.78.54-1.6.82-2.47.86s-1.71-.17-2.51-.62-1.5-1.09-2.08-1.94c-.51-.74-.88-1.52-1.13-2.36Z"/>
        <path class="cls-1" d="M39.37,208.47c-.37-.79-.59-1.57-.67-2.35-.02-.18.02-.33.11-.43s.21-.18.37-.22c.17-.03.31,0,.42.1s.19.23.24.4c.17.76.41,1.47.73,2.11s.7,1.2,1.14,1.66c.54.57,1.11.97,1.73,1.19.62.22,1.22.27,1.8.15s1.12-.41,1.6-.86c.58-.55.89-1.24.93-2.06s-.22-1.86-.75-3.11l-.22-.52c-.42-.96-.69-1.83-.8-2.6-.11-.77-.06-1.46.15-2.08.21-.62.58-1.19,1.11-1.69.68-.64,1.42-1.03,2.23-1.18.81-.15,1.63-.07,2.45.23.82.31,1.55.81,2.21,1.51.55.58.99,1.22,1.33,1.92.34.7.54,1.41.62,2.15.02.18-.02.33-.11.43-.09.1-.21.18-.37.22-.15.03-.29,0-.41-.09-.13-.09-.21-.22-.25-.41-.15-.65-.36-1.25-.63-1.81-.27-.56-.61-1.05-1.02-1.48-.75-.79-1.56-1.24-2.44-1.33s-1.68.19-2.39.86c-.55.52-.85,1.14-.9,1.88-.05.74.17,1.68.67,2.81l.22.52c.68,1.56.99,2.89.94,3.99-.05,1.1-.5,2.05-1.35,2.85-.69.65-1.46,1.05-2.31,1.22-.85.17-1.71.09-2.57-.23-.86-.32-1.64-.85-2.35-1.6-.61-.65-1.1-1.37-1.47-2.16Z"/>
        <path class="cls-1" d="M51.22,220c-.04-.17.01-.33.14-.49l10.41-12.44c.13-.16.29-.24.46-.23s.34.08.5.21l.13.11c.17.14.28.29.31.45.04.16-.02.32-.16.49l-10.41,12.44c-.13.16-.29.24-.46.23-.17,0-.34-.08-.5-.21l-.13-.11c-.16-.13-.26-.28-.3-.45Z"/>
        <path class="cls-1" d="M60.05,226.98c-.04-.15,0-.3.09-.47l8.56-13.7c.13-.2.28-.32.45-.36.17-.03.36.01.56.14.16.1.28.23.35.37.07.15.1.35.11.62l.57,17.79-.64-.11,7.97-12.76c.1-.16.23-.26.37-.28.15-.02.3.02.46.12l.14.09c.16.1.26.22.3.36.04.14,0,.29-.1.45l-8.57,13.72c-.12.19-.27.3-.44.35-.18.04-.36,0-.55-.12-.16-.1-.28-.23-.35-.37-.07-.15-.11-.36-.13-.63l-.54-17.8.62.1-7.97,12.76c-.1.16-.22.26-.37.29s-.3,0-.46-.1l-.14-.09c-.16-.1-.26-.23-.3-.37Z"/>
        <path class="cls-1" d="M90,242.07c-.11-.19-.12-.41-.05-.67l4.26-15.16c.07-.26.2-.45.39-.55s.41-.12.67-.05l4.58,1.29c1.65.46,2.98,1.21,4.01,2.25,1.02,1.04,1.68,2.28,1.97,3.72.29,1.45.2,3.01-.27,4.69-.47,1.68-1.21,3.06-2.21,4.15s-2.21,1.81-3.63,2.17c-1.41.36-2.95.31-4.59-.16l-4.58-1.29c-.26-.07-.45-.2-.55-.39ZM91.05,241.28l4.37,1.23c1.37.38,2.63.42,3.77.11s2.12-.93,2.94-1.87c.82-.93,1.43-2.13,1.84-3.59.41-1.46.51-2.81.3-4.03-.21-1.22-.73-2.26-1.54-3.12-.81-.86-1.91-1.48-3.28-1.87l-4.32-1.21.67-.43-4.39,15.64-.36-.85Z"/>
        <path class="cls-1" d="M112.9,234.93c-.01-.13.04-.27.15-.42.32-.43.57-.88.76-1.35.19-.47.33-1,.41-1.57.05-.35.07-.69.07-1.03,0-.19.01-.39,0-.58.01-.21.08-.36.22-.46.13-.09.31-.13.54-.12.22.03.39.1.51.2s.17.27.18.5c.01.49-.01,1-.09,1.54-.1.73-.3,1.41-.61,2.04-.31.63-.71,1.16-1.18,1.6-.13.13-.26.19-.39.18s-.26-.07-.39-.19c-.1-.09-.16-.21-.17-.34Z"/>
        <path class="cls-1" d="M118.64,248.05c-.09-.14-.09-.33.01-.59l6.33-15.88c.17-.43.46-.64.86-.63h.1c.4.01.67.24.8.67l5.55,16.18c.09.26.07.45-.05.59-.12.13-.31.2-.54.19h-.17c-.24,0-.44-.06-.58-.16s-.25-.26-.31-.49l-5.21-15.54.72-.15-6.08,15.43c-.09.22-.19.38-.32.47s-.29.14-.48.13h-.17c-.21,0-.36-.08-.45-.22ZM121.55,242.16l7.94.2-.03,1.18-7.94-.2.03-1.18Z"/>
        <path class="cls-1" d="M141.37,247.71c-.15-.08-.24-.23-.27-.46l-2.34-15.79c-.04-.27,0-.49.13-.66.13-.17.33-.28.6-.32l4.01-.6c1.23-.18,2.31-.14,3.23.12s1.66.72,2.21,1.37.9,1.49,1.05,2.5c.14.95.06,1.79-.23,2.51-.3.72-.76,1.33-1.38,1.81-.62.48-1.36.85-2.21,1.11l.12-.96,5.39,7.04c.22.29.3.52.24.69s-.24.28-.52.32l-.12.02c-.27.04-.54-.04-.82-.23-.28-.19-.55-.44-.8-.74s-.58-.72-.96-1.26l-3.72-5.13.73.47-4.37.65-.18-1.19,3.39-.5c1.44-.21,2.49-.69,3.14-1.42.65-.74.89-1.71.71-2.91-.18-1.2-.68-2.05-1.51-2.55s-1.97-.64-3.42-.43l-3.44.51.33-.58,2.36,15.93c.03.22,0,.39-.12.51-.11.12-.28.2-.5.23l-.14.02c-.22.03-.41,0-.56-.08Z"/>
        <path class="cls-1" d="M163.81,242.23c-1.39-.31-2.63-1-3.73-2.05-1.1-1.06-1.93-2.43-2.49-4.11-.57-1.68-.73-3.28-.49-4.78.24-1.5.82-2.8,1.74-3.88.92-1.08,2.09-1.87,3.52-2.34.93-.31,1.85-.48,2.77-.52.92-.04,1.77.05,2.53.27.22.06.38.16.48.31.1.14.12.32.07.52-.04.15-.13.26-.28.33-.15.08-.33.1-.52.06-.18-.04-.37-.07-.56-.09-.67-.09-1.35-.12-2.03-.06-.68.05-1.34.18-1.96.39-1.15.39-2.1,1.03-2.84,1.93-.74.9-1.19,1.98-1.36,3.25-.17,1.27-.01,2.64.47,4.09s1.18,2.64,2.09,3.55c.9.91,1.93,1.51,3.07,1.78,1.14.28,2.28.22,3.44-.17.7-.23,1.37-.58,2.02-1.04.65-.46,1.23-.99,1.76-1.59.14-.15.29-.24.45-.27.17-.03.31,0,.43.1.14.12.22.27.24.44.02.17-.04.36-.18.55-.5.67-1.13,1.28-1.91,1.83-.77.55-1.6.97-2.5,1.27-1.43.48-2.83.56-4.22.25Z"/>
        <path class="cls-1" d="M180.26,236.69c-.15-.07-.24-.24-.28-.51l-2.56-16.9c-.07-.46.07-.78.42-.97l.08-.05c.35-.19.69-.14,1.03.17l12.96,11.16c.21.18.29.35.25.53-.04.18-.16.32-.37.44l-.15.08c-.21.12-.4.17-.58.16s-.35-.1-.52-.26l-12.34-10.78.55-.5,2.55,16.38c.04.24.02.42-.04.57-.07.15-.18.26-.35.36l-.15.08c-.18.1-.35.12-.5.04ZM179.79,230.14l6.95-3.84.57,1.03-6.95,3.84-.57-1.03Z"/>
        <path class="cls-1" d="M201.07,222.84c-1.41.19-2.81-.02-4.21-.63-1.4-.61-2.65-1.61-3.77-2.99s-1.82-2.82-2.12-4.32c-.3-1.49-.21-2.91.28-4.25.49-1.33,1.31-2.48,2.48-3.42.76-.61,1.57-1.1,2.42-1.46.85-.36,1.67-.57,2.47-.63.23-.02.42.02.56.12s.23.25.25.46c.02.15-.03.29-.15.41-.12.12-.27.2-.47.24-.18.03-.37.06-.56.11-.67.14-1.31.36-1.93.65-.62.29-1.19.63-1.7,1.05-.95.76-1.61,1.69-1.99,2.79-.38,1.1-.43,2.27-.15,3.53.28,1.25.9,2.48,1.87,3.67s2.03,2.06,3.19,2.61c1.16.54,2.33.74,3.49.61,1.16-.14,2.22-.59,3.17-1.35.57-.46,1.08-1.02,1.53-1.68.45-.66.81-1.36,1.1-2.1.08-.18.19-.32.33-.41.15-.09.29-.1.43-.06.17.06.3.17.37.33.07.16.08.35.02.58-.23.81-.62,1.6-1.15,2.38-.53.78-1.17,1.46-1.9,2.06-1.17.94-2.46,1.51-3.87,1.7Z"/>
        <path class="cls-1" d="M215.73,210.75c-.17.04-.33-.01-.49-.15l-12.34-10.54c-.16-.13-.23-.29-.22-.46,0-.17.08-.33.22-.49l.11-.13c.15-.17.3-.27.45-.31s.32.02.49.17l12.34,10.54c.16.13.23.29.22.46,0,.17-.08.34-.22.49l-.11.13c-.14.16-.29.26-.45.29ZM209.09,203.83l6.52-7.63,1,.86-6.52,7.63-1-.86ZM222.7,202.59c-.17.04-.33-.01-.49-.15l-12.34-10.54c-.17-.14-.25-.3-.24-.46,0-.16.09-.33.23-.5l.11-.13c.14-.16.29-.25.45-.29.17-.04.33.01.49.15l12.34,10.54c.16.13.23.29.22.46,0,.17-.08.34-.22.49l-.11.13c-.14.16-.29.26-.45.29Z"/>
        <path class="cls-1" d="M230.76,189.53c-1.24.71-2.61,1.05-4.13,1-1.52-.04-3.06-.5-4.61-1.36-1.55-.86-2.75-1.92-3.6-3.18-.85-1.26-1.3-2.61-1.35-4.04-.05-1.43.29-2.81,1.04-4.16.74-1.34,1.73-2.37,2.97-3.09,1.24-.71,2.61-1.05,4.13-1,1.52.04,3.06.5,4.61,1.36,1.55.86,2.75,1.92,3.6,3.18.85,1.26,1.3,2.61,1.35,4.04.05,1.43-.29,2.81-1.04,4.16-.74,1.34-1.73,2.37-2.97,3.09ZM233.39,182.51c-.06-1.16-.47-2.26-1.21-3.32-.74-1.05-1.79-1.95-3.15-2.7s-2.68-1.16-3.97-1.23-2.44.17-3.45.74c-1.01.56-1.81,1.37-2.39,2.42-.58,1.05-.84,2.15-.77,3.3.07,1.15.47,2.26,1.21,3.32.74,1.06,1.79,1.96,3.15,2.71s2.68,1.16,3.97,1.23c1.29.07,2.44-.17,3.45-.74,1.01-.56,1.81-1.37,2.39-2.42.58-1.05.84-2.15.78-3.31Z"/>
        <path class="cls-1" d="M241.17,169.67c-.13.08-.29.08-.47.03l-15.43-4.79c-.23-.07-.38-.19-.46-.34-.08-.16-.08-.35,0-.58.06-.18.15-.33.27-.43s.32-.19.57-.26l17.06-5.09.05.64-14.37-4.46c-.18-.06-.3-.15-.36-.29s-.06-.29,0-.48l.05-.16c.06-.18.15-.31.27-.38.12-.07.28-.08.46-.02l15.45,4.79c.21.07.36.18.45.34s.09.35.03.56c-.06.18-.15.33-.27.43-.12.1-.32.2-.58.29l-17.07,5.06-.06-.62,14.37,4.46c.18.06.31.15.38.28.07.13.08.29.02.47l-.05.16c-.06.18-.15.31-.28.39Z"/>
      </g>
    </g>
  </g>
</svg>