<?xml version="1.0" encoding="UTF-8"?>
<svg id="Calque_2" data-name="Calque 2" xmlns="http://www.w3.org/2000/svg" viewBox="0 0 169.16 157.89">
  <defs>
    <style>
      .cls-1 {
        fill: #387187;
      }
    </style>
  </defs>
  <g id="Calque_1-2" data-name="Calque 1">
    <g>
      <path class="cls-1" d="M21.73,66.2c-1.41-.8-3.21-2.74-4.12-4.17-.97-1.48-1.48-2.87-1.61-4.7-.33-3.26.87-6.46,3-8.81l1.36,6.65c.25,1.21.79,2.3,1.54,3.21-.53,1.9.27,3.94.68,5.9.33,1.41.47,2.73-.85,1.92Z"/>
      <path class="cls-1" d="M35.1,39.45l-4.82.98.91,4.47,1.58,7.73c.24,1.14.08,2.27-.37,3.26-.12.26-.25.51-.41.75-.75,1.14-1.94,1.99-3.38,2.29-2.3.47-4.55-.62-5.67-2.54-.29-.49-.5-1.03-.62-1.62l-1.6-7.79-.9-4.41-5.32,1.09c-3.93.8-7.77-1.74-8.58-5.67l-.68-3.33,34.85-7.12.68,3.33c.81,3.93-1.73,7.78-5.67,8.58Z"/>
      <g>
        <path class="cls-1" d="M154.11,56.99c-.13,1.83-.64,3.22-1.62,4.7-.91,1.42-2.7,3.36-4.11,4.17-1.32.8-1.19-.52-.85-1.93.43-2.1,1.33-4.31.54-6.32l1.95-6.59h.01l.9-3.03c2.24,2.36,3.52,5.64,3.18,9Z"/>
        <path class="cls-1" d="M168.03,30.56c-.03.1-.06.21-.09.31l-.3,1.03-4.79,16.23-11-3.24,3.41-11.55c.11-.38.17-.77.17-1.16v-.02c0-.14,0-.29-.03-.42-.01-.1-.03-.21-.05-.3v-.02c-.02-.12-.05-.24-.09-.35-.02-.09-.05-.19-.09-.28-.06-.17-.14-.34-.23-.51-.04-.07-.07-.13-.12-.2-.05-.08-.1-.16-.16-.24-.02-.03-.05-.07-.07-.1-.05-.06-.1-.11-.14-.17-.07-.08-.14-.15-.22-.23-.07-.08-.15-.15-.24-.22-.08-.07-.17-.13-.26-.2-.09-.06-.18-.12-.27-.18-.19-.11-.39-.21-.6-.29-.11-.04-.21-.08-.32-.11l-1.8-.53c-.09-.03-.19-.05-.28-.07-.1-.02-.2-.04-.29-.05-.19-.03-.38-.04-.58-.04h-.16c-.06,0-.11,0-.17.01-.09.01-.19.02-.28.04-.13,0-.26.04-.39.08-.09.02-.18.05-.28.08-.1.03-.19.07-.29.11-.1.04-.2.09-.29.14-.1.05-.19.1-.28.16h0c-.08.06-.17.12-.25.18-.17.12-.34.26-.48.42-.07.08-.14.16-.21.24-.07.08-.13.16-.2.25-.14.2-.26.41-.35.63-.04.07-.07.14-.1.21-.04.1-.08.21-.11.32l-.8,2.72-2.61,8.83h-.02s-12.05-3.56-12.05-3.56l4.95-16.76c1.87-6.32,5.83-11.8,11.09-15.59.28-.21.56-.4.85-.59,1.92-1.3,4.01-2.37,6.23-3.18l6.52-2.39,3.87,5.51c5.16,7.33,6.7,16.44,4.26,25.05Z"/>
        <path class="cls-1" d="M153.34,32.77l-1.54,5.22-1.87,6.33-.66,2.22-.73,2.48h-.01l-1.91,6.46-3.52,11.92,2.61.77c1.07.31,1.68,1.44,1.36,2.51l-.53,1.81c-.32,1.07-1.44,1.68-2.51,1.37l-10.36-3.06c.25-1.53.42-3.08.55-4.59.04-.45.07-.91.1-1.37.12,0,.24.03.35.07l2.74.81,3.53-11.97,2.75-9.31,2.48-8.38h.02s1.47-4.97,1.47-4.97c.31-1.07,1.44-1.68,2.51-1.36l1.81.53c1.07.32,1.68,1.44,1.36,2.51Z"/>
        <path class="cls-1" d="M139.61,106.87c2.01-.18,4.19-.61,6.17-1.22,10.61-3.26,19.71-12.21,18.77-23.52-.62-7.38-10.37-13.83-16.19-6.47-.46.58-2.03,3.91-.33,3.54.75-.17,2.24-1.05,3.45-1.08,1.61-.17,2.93,1.12,3.19,2.62.48,2.29-.54,5.14-2.2,6.98-4.93,5.63-12.33,2.14-17.9-.44-1.7-.75-3.59-1.23-5.33-1.75-2.48-.77.18-3.34.91-4.69,1.22-1.96,1.89-3.46,2.51-5.53.24-.83.45-1.67.63-2.53.15-.65.27-1.31.38-1.98.25-1.53.42-3.08.55-4.59.04-.45.07-.91.1-1.37.04-.66.09-1.33.16-2,.17-1.83.51-3.64,1.44-5.12.66-1.08,1.55-2.1,2.61-2.84l3.11-10.56c-1.91.01-3.83.36-5.58.97-5.67,1.93-9.49,7.08-11.73,12.37-2.05,4.62-3.02,9.79-5.99,14.01-2.55,3.9-5.07,5.59-9.18,6.65,5.84-6.78,9.45-16.05,9.45-26.27,0-20.81-14.94-37.68-33.37-37.68s-33.36,16.87-33.36,37.68c0,10.5,3.81,20,9.94,26.83-4.63-1.04-7.33-2.7-10.05-6.86-2.98-4.23-3.94-9.39-6-14.02-2.23-5.29-6.05-10.44-11.73-12.37-.23-.08-.46-.16-.7-.23l1.39,6.83c.37,1.83.04,3.68-.93,5.27.14.18.26.37.38.56,1.51,2.4,1.47,5.64,1.71,8.5.24,3.01.7,6.17,1.56,9.1.61,2.06,1.29,3.56,2.51,5.52.73,1.35,3.39,3.92.9,4.7-1.73.52-3.63,1-5.32,1.75-5.57,2.58-12.97,6.07-17.9.43-1.66-1.83-2.69-4.68-2.2-6.98.26-1.49,1.57-2.78,3.18-2.62,1.22.04,2.71.92,3.46,1.08,1.7.38.13-2.95-.33-3.53-5.82-7.37-15.58-.92-16.19,6.46-.95,11.31,8.16,20.27,18.77,23.53,1.98.61,4.16,1.03,6.16,1.22,1.24.11,2.38.13,2.71.36.55.31-.87,1.32-1.28,1.67-1.33,1.08-2.59,2.21-3.71,3.39-6.27,6.31-11.17,19.74-6.4,28.26,4.58,7.78,15.21,9.68,22.42,2.08,1.08-1.14,3.69-4.94,3.3-6.45-.13-.44-1.71.57-2.42,1.05-2.24,1.48-4.51,3.02-7.27,2.99-4.45.09-7.98-3.91-7.41-8.42.55-5.34,6.4-6.51,10.84-7.53,4.12-.9,7.48-1.54,11.39-2.99.9-.27,2.99-1.23,2.52.56-.38,1.3-.98,2.66-1.33,3.99-1.07,3.7-1.17,8.13-.66,12.01,1.09,8.71,8.05,18.51,17.42,19.61,7.99.99,17.27-6.08,13.59-14.55-1.51-3.3-5.13-5.36-8.6-5.46-.61-.02-1.3-.07-1.85.09-.15.05-.29.1-.31.25.12.86,1.69,1.66,2.46,3.29.33.64.53,1.37.53,2.1-.12,4.42-5.49,3.66-7.82,1.3-1.34-1.2-2.13-2.87-2.54-4.53-.84-3.31-.38-6.99,1.79-9.68,1.98-2.38,4.87-3.85,7.46-5.49,2.95-1.88,5.96-4.39,7.91-7.17.95-1.2,1.71-2.71,1.84-4.27.2,1.44.92,2.82,1.81,3.92,1.95,2.79,4.95,5.3,7.91,7.18,2.58,1.63,5.47,3.1,7.46,5.48,2.17,2.69,2.62,6.38,1.79,9.68-.36,1.45-1.03,2.9-2.09,4.04-.15.17-.28.34-.45.5-2.33,2.35-7.7,3.12-7.83-1.31,0-.72.2-1.45.53-2.1.77-1.63,2.34-2.43,2.47-3.28-.03-.15-.16-.2-.31-.26-.55-.15-1.24-.11-1.85-.08-3.47.09-7.1,2.16-8.6,5.45-3.68,8.47,5.6,15.54,13.59,14.56,2.52-.3,4.85-1.24,6.96-2.6,5.72-3.71,9.66-10.65,10.46-17.01.51-3.89.4-8.32-.67-12.02-.34-1.32-.95-2.69-1.32-3.99-.47-1.79,1.61-.82,2.51-.56,3.92,1.46,7.28,2.09,11.39,3,4.45,1.01,10.3,2.18,10.85,7.52.57,4.52-2.96,8.51-7.41,8.42-2.76.04-5.03-1.51-7.27-2.98-.71-.49-2.29-1.49-2.42-1.06-.39,1.51,2.22,5.32,3.3,6.45,7.21,7.6,17.84,5.71,22.42-2.08,4.77-8.51-.13-21.95-6.4-28.25-1.12-1.19-2.38-2.32-3.71-3.39-.41-.36-1.83-1.36-1.29-1.67.34-.24,1.48-.25,2.71-.37ZM73.05,54.13c-2.48,0-4.5-3.58-4.5-8s2.02-8,4.5-8,4.5,3.58,4.5,8-2.01,8-4.5,8ZM97.05,54.13c-2.48,0-4.5-3.58-4.5-8s2.02-8,4.5-8,4.5,3.58,4.5,8-2.01,8-4.5,8Z"/>
        <path class="cls-1" d="M39.48,24.55L4.63,31.67l-.79-3.86-.29-1.42L.05,9.25c-.28-1.37.6-2.7,1.96-2.98l14.96-3.05,1.16,5.71.24,1.15,1.24,6.08c.17.83.98,1.36,1.8,1.19.83-.17,1.36-.97,1.19-1.8l-1.61-7.88-.23-1.13-.8-3.93,4.48-.92.31,1.53.23,1.09,1.29,6.34c.17.83.97,1.36,1.8,1.19.82-.17,1.35-.97,1.18-1.8l-1.59-7.78-.22-1.08c.07-.05.14-.1.21-.15l2.41-.49,1.86-.38c1.37-.28,2.7.6,2.98,1.97l4.58,22.42Z"/>
      </g>
    </g>
  </g>
</svg>