<?xml version="1.0" encoding="UTF-8"?>
<svg id="Calque_2" data-name="Calque 2" xmlns="http://www.w3.org/2000/svg" viewBox="0 0 159.13 143.52">
  <defs>
    <style>
      .cls-1 {
        fill: #387187;
      }
    </style>
  </defs>
  <g id="Calque_2-2" data-name="Calque 2">
    <g id="Calque_1-2" data-name="Calque 1-2">
      <path class="cls-1" d="M131.41,92.87c-.54.31.88,1.31,1.29,1.67,1.33,1.07,2.59,2.2,3.71,3.39,6.27,6.3,11.17,19.74,6.4,28.25-4.58,7.79-15.21,9.68-22.43,2.09-1.07-1.14-3.68-4.95-3.29-6.46.13-.43,1.71.57,2.42,1.06,2.24,1.47,4.51,3.02,7.27,2.98,4.45.09,7.98-3.9,7.41-8.42-.55-5.34-6.4-6.51-10.85-7.52-4.11-.91-7.47-1.54-11.39-3-.9-.26-2.98-1.23-2.51.56.37,1.3.98,2.67,1.32,3.99,1.07,3.7,1.17,8.13.67,12.02-1.09,8.7-8.06,18.5-17.42,19.61-7.99.98-17.27-6.09-13.59-14.56,1.5-3.29,5.13-5.36,8.6-5.45.61-.03,1.3-.07,1.85.08.14.06.28.11.31.26-.13.85-1.7,1.65-2.47,3.28-.33.65-.53,1.38-.53,2.1.13,4.43,5.49,3.66,7.83,1.31,1.34-1.2,2.13-2.88,2.54-4.53.83-3.31.38-7-1.8-9.69-1.98-2.38-4.87-3.85-7.45-5.48-2.96-1.88-5.96-4.39-7.91-7.18-.89-1.1-1.61-2.48-1.81-3.92-.13,1.56-.89,3.07-1.84,4.27-1.95,2.78-4.96,5.29-7.91,7.17-2.59,1.64-5.48,3.11-7.46,5.49-2.17,2.69-2.63,6.37-1.79,9.68.41,1.66,1.19,3.33,2.54,4.53,2.33,2.36,7.7,3.12,7.82-1.3,0-.73-.2-1.46-.53-2.1-.77-1.63-2.34-2.43-2.46-3.28.02-.16.16-.21.31-.26.55-.15,1.24-.11,1.85-.09,3.47.1,7.09,2.16,8.6,5.46,3.68,8.47-5.6,15.54-13.59,14.55-9.37-1.1-16.33-10.9-17.42-19.6-.51-3.89-.41-8.32.66-12.02.34-1.33.95-2.69,1.32-3.99.48-1.79-1.61-.83-2.51-.56-3.91,1.45-7.27,2.09-11.39,2.99-4.44,1.02-10.29,2.19-10.84,7.53-.57,4.51,2.96,8.51,7.41,8.42,2.76.03,5.03-1.51,7.27-2.99.71-.48,2.29-1.49,2.42-1.05.39,1.51-2.22,5.32-3.3,6.45-7.21,7.6-17.84,5.7-22.42-2.08-4.77-8.52.13-21.95,6.39-28.26,1.13-1.18,2.39-2.31,3.72-3.39.4-.35,1.83-1.36,1.28-1.67-.33-.23-1.48-.25-2.71-.36-2-.19-4.18-.61-6.16-1.22C8.23,88.37-.88,79.41.07,68.1c.61-7.38,10.37-13.83,16.19-6.46.46.58,2.03,3.91.33,3.53-.75-.16-2.24-1.04-3.46-1.08-1.61-.16-2.92,1.13-3.18,2.62-.49,2.3.54,5.15,2.2,6.98,4.93,5.64,12.33,2.15,17.9-.43,1.69-.75,3.59-1.23,5.32-1.75,1.54-.49,1.11-1.65.39-2.79-.45-.7-1.01-1.39-1.29-1.91-1.23-1.96-1.9-3.46-2.51-5.52-.86-2.93-1.32-6.09-1.56-9.1-.25-2.86-.2-6.1-1.71-8.5-1.17-1.92-3.09-3.64-5.36-4.04-2.49-.5-5.69,1.34-6.63,3.58-1.05,2.11-.08,4.45.39,6.68.33,1.41.47,2.73-.85,1.92-1.41-.8-3.21-2.74-4.12-4.17-.97-1.48-1.48-2.87-1.61-4.7-.51-5.01,2.6-9.88,7.14-11.7,3.37-1.37,7.47-1.21,10.9,0,5.68,1.93,9.5,7.08,11.73,12.37,2.06,4.63,3.02,9.79,5.99,14.02,1.32,2.01,2.63,3.43,4.16,4.49,1.63,1.13,3.5,1.83,5.9,2.37-6.13-6.83-9.94-16.33-9.94-26.83C46.39,16.87,61.32,0,79.75,0s33.36,16.87,33.36,37.68c0,10.22-3.6,19.48-9.45,26.27,4.12-1.05,6.64-2.74,9.19-6.65,2.97-4.22,3.94-9.39,5.99-14.01,2.24-5.29,6.06-10.44,11.73-12.37,3.44-1.21,7.54-1.37,10.91-.01,4.54,1.82,7.65,6.69,7.14,11.71-.13,1.83-.64,3.22-1.62,4.7-.91,1.42-2.7,3.36-4.11,4.17-1.32.8-1.19-.52-.85-1.93.46-2.23,1.44-4.57.38-6.68-.93-2.23-4.13-4.07-6.63-3.57-2.27.4-4.18,2.11-5.36,4.04-1.5,2.4-1.46,5.64-1.7,8.49-.25,3.01-.7,6.18-1.56,9.1-.62,2.07-1.29,3.57-2.51,5.53-.73,1.35-3.39,3.92-.91,4.69,1.74.52,3.63,1,5.33,1.75,5.57,2.58,12.97,6.07,17.9.44,1.66-1.84,2.68-4.69,2.2-6.98-.26-1.5-1.58-2.79-3.19-2.62-1.22.03-2.7.91-3.45,1.08-1.7.37-.13-2.96.33-3.54,5.82-7.36,15.57-.91,16.19,6.47.94,11.31-8.16,20.26-18.77,23.52-1.98.61-4.16,1.04-6.17,1.22-1.23.12-2.38.13-2.71.37Z"/>
    </g>
  </g>
</svg>