<?xml version="1.0" encoding="UTF-8"?>
<svg id="Calque_2" data-name="Calque 2" xmlns="http://www.w3.org/2000/svg" viewBox="0 0 86.51 141.79">
  <defs>
    <style>
      .cls-1 {
        fill-rule: evenodd;
      }

      .cls-1, .cls-2 {
        fill: #fbfcfd;
      }
    </style>
  </defs>
  <g id="Calque_1-2" data-name="Calque 1">
    <g id="Layer_1">
      <g id="_362516536" data-name=" 362516536">
        <path class="cls-2" d="M36.3,78.02h0s-3.86,6.68-3.86,6.68l-2.15-1.24,4.46-7.73c.4.83.92,1.6,1.55,2.29Z"/>
        <path id="_362516944" data-name=" 362516944" class="cls-2" d="M45.57,80.79c.29-.07.58-.16.86-.26-.28.1-.57.19-.86.26Z"/>
        <path class="cls-2" d="M52.26,68.78h0c-.07-.22-.15-.44-.24-.65-.03-.07-.06-.15-.09-.22-.05-.12-.11-.25-.17-.37-.04-.07-.07-.15-.11-.22-.01-.02-.02-.05-.04-.07-.05-.09-.09-.18-.14-.26,0-.01,0-.02-.02-.03-.04-.07-.08-.14-.12-.21,0,0,0,0,0,0-.07-.11-.14-.22-.21-.33-.13-.2-.27-.4-.42-.59-.03-.04-.06-.08-.09-.12-.15-.19-.31-.37-.48-.55-.04-.04-.07-.08-.11-.12,0,0,0-.01-.01-.01-.08-.08-.16-.16-.24-.24h0c-.11-.1-.21-.2-.32-.3-.32-.28-.66-.54-1.03-.77-.05-.04-.11-.07-.16-.1-.09-.06-.19-.12-.28-.17-.09-.05-.18-.1-.27-.15-.07-.04-.15-.08-.22-.12-.22-.11-.45-.21-.68-.3-.06-.03-.12-.05-.19-.07-1.2-.46-2.47-.67-3.75-.61-.11,0-.22.01-.34.02-.11,0-.22.02-.32.03-.05,0-.1.01-.15.02-.1.01-.2.03-.3.04h0c-.32.05-.63.12-.95.2-.99.27-1.92.68-2.75,1.23,0,0,0,0,0,0h0c-.19.13-.38.26-.57.4-.12.09-.23.18-.34.28-.12.1-.23.2-.34.31,0,0-.02.01-.02.02-.09.08-.17.16-.25.24-.04.04-.07.08-.11.12-.1.11-.2.21-.29.32-.09.11-.18.21-.26.32-.06.08-.12.16-.18.23-.04.06-.08.11-.12.17-.09.12-.17.24-.24.36-.09.13-.17.27-.25.4-.06.09-.11.19-.16.29-.05.09-.1.18-.14.27-.03.06-.06.13-.09.19-.02.05-.05.11-.07.16-.03.08-.07.16-.1.23-.06.16-.12.32-.18.48-.03.08-.06.16-.08.24-.41,1.3-.53,2.64-.38,3.94.12,1.05.42,2.07.88,3.02h0c.4.83.92,1.6,1.55,2.29.02.02.04.05.07.07.03.04.07.08.11.11.08.09.17.17.26.26.07.07.14.13.21.19.12.12.25.23.39.34.1.08.2.16.31.23.28.21.58.41.89.59.28.16.56.31.85.43.21.1.43.19.65.27.07.03.15.05.22.08.04.02.08.03.12.04.07.02.15.05.22.07,0,0,.01,0,.02,0,.01,0,.02,0,.03,0h0c.85.25,1.73.37,2.59.37.17,0,.35,0,.52-.02.15,0,.3-.02.45-.04.13-.01.26-.03.39-.05.17-.02.35-.06.52-.09.14-.03.28-.06.42-.1,0,0,.01,0,.01,0,.29-.07.57-.16.86-.26.14-.05.28-.11.42-.16.17-.07.33-.14.5-.22.11-.05.22-.11.33-.16.14-.07.27-.15.4-.22.13-.08.26-.16.39-.24.11-.07.21-.14.31-.21.04-.03.09-.06.13-.1.11-.08.21-.16.31-.24.12-.09.23-.19.34-.29.02-.01.03-.03.05-.04.09-.08.17-.16.26-.24.12-.12.24-.25.36-.37.46-.5.87-1.06,1.22-1.67.12-.2.23-.41.33-.62.47-.97.76-2,.88-3.02.15-1.33.02-2.67-.38-3.93ZM50.22,71.66c0,.08,0,.17,0,.25,0,.09,0,.18-.01.27,0,.05,0,.09-.01.14,0,.07-.01.14-.02.21-.01.11-.03.23-.06.35-.02.12-.04.23-.07.35-.01.06-.03.12-.05.19-.02.07-.04.14-.06.22-.01.05-.03.1-.05.16-.02.07-.04.14-.07.2-.11.3-.24.6-.4.89-.04.08-.08.15-.12.23,0,.01-.02.03-.03.04-.11.19-.23.37-.35.54-.07.11-.16.21-.24.31,0,.01-.02.02-.03.03-.06.08-.13.16-.2.23-.03.04-.06.07-.09.1-.04.04-.08.08-.12.12-.04.04-.08.08-.12.12-.16.16-.32.3-.5.44-.05.04-.1.08-.15.12-.28.22-.58.41-.89.58-.09.05-.17.09-.26.14-.48.24-.98.41-1.49.53-.08.02-.16.04-.24.05-.14.03-.27.05-.41.07-.08.01-.16.02-.23.03,0,0-.01,0-.02,0-.12.01-.25.02-.37.03-.26.01-.52,0-.78-.01-.14,0-.27-.02-.41-.04-.1-.01-.2-.03-.3-.04-.05,0-.1-.02-.14-.03-.74-.14-1.46-.41-2.14-.8-3.33-1.92-4.47-6.18-2.55-9.51.07-.12.15-.25.23-.37.07-.1.14-.2.21-.3.02-.04.05-.07.08-.11,0-.01.02-.03.03-.04.06-.08.13-.16.19-.24.09-.11.19-.21.29-.32.1-.1.2-.2.3-.29.08-.08.17-.15.25-.22.04-.03.08-.07.12-.1.09-.07.17-.13.26-.19.02-.02.04-.03.07-.05.1-.07.2-.14.3-.2.03-.02.06-.04.09-.06.01,0,.02-.01.04-.02.06-.03.12-.07.17-.1.1-.06.2-.11.3-.16.12-.06.25-.12.37-.17.09-.03.17-.07.25-.1.12-.05.24-.09.36-.12.1-.03.2-.06.3-.09,1.8-.48,3.67-.24,5.28.7.19.11.37.23.55.35.08.06.17.12.24.18.19.14.36.3.53.46.07.07.15.14.22.22.05.05.1.1.14.15.04.04.07.08.11.12.48.55.86,1.17,1.14,1.84.04.09.07.17.1.26.05.13.1.27.14.4.03.1.06.19.09.29.03.13.06.26.09.39.02.09.04.18.05.27,0,.04.01.07.02.11.01.09.02.19.04.29,0,.07.02.15.02.23,0,.04,0,.09,0,.13,0,.01,0,.03,0,.04,0,.11,0,.22,0,.33v.02Z"/>
        <path class="cls-2" d="M72.53,37.45c-6.15,14-15.03,28-19.89,35.25.15-1.33.02-2.67-.38-3.93h0c.31-.48.63-.97.96-1.48.33-.51.67-1.04,1.02-1.59.14-.21.27-.43.41-.65.1-.16.2-.32.3-.48.12-.18.24-.37.35-.55.18-.29.36-.58.55-.88.28-.44.56-.89.84-1.36.19-.3.38-.61.57-.93.1-.16.19-.31.29-.47.1-.16.19-.32.29-.48.32-.53.64-1.07.97-1.61.16-.28.33-.56.5-.84.17-.29.34-.57.51-.86.11-.19.22-.38.34-.58.22-.37.43-.74.65-1.11.12-.21.25-.43.37-.65.45-.79.91-1.6,1.36-2.41.23-.41.46-.82.68-1.23.19-.33.37-.67.55-1.01.13-.23.25-.46.38-.7.19-.34.37-.68.55-1.03,1.38-2.6,2.73-5.27,3.99-7.96.18-.38.36-.77.54-1.15.18-.38.35-.77.53-1.16.17-.38.35-.77.52-1.15,6.6-15.01,8.37-25.99,5.3-32.7l-31.2,54.04s0,.01-.01.02c0,.01-.01.02-.02.03,0,.01-.01.02-.02.03l-2.55,4.42h0c-.32.05-.63.12-.95.2-.99.27-1.92.68-2.75,1.23l3.22-5.58.54-.94,1.44-2.49L74.49.62c.21-.37.6-.61,1.03-.62.43-.02.83.19,1.07.54,4.9,7.21,3.53,19.63-4.07,36.91Z"/>
        <polygon class="cls-2" points="41.28 58.15 38.06 63.73 38.05 63.73 41.28 58.15"/>
        <path class="cls-2" d="M54.24,65.7c-.35.55-.69,1.08-1.02,1.59.33-.51.67-1.04,1.02-1.59Z"/>
        <path class="cls-2" d="M10.95,3.75c-3.07,6.71-1.29,17.69,5.3,32.7.17.38.34.77.52,1.15.17.38.35.77.53,1.15.13.29.27.58.4.87.16.34.31.67.47,1,.14.3.28.6.43.89.16.33.32.65.47.97.14.29.28.58.43.86.8,1.6,1.62,3.19,2.45,4.75.22.42.45.84.67,1.25.22.42.45.83.68,1.24.22.41.45.82.68,1.23.23.41.45.81.68,1.22.45.8.9,1.59,1.35,2.36,0,0,0,.01.01.02.29.51.59,1.02.88,1.52.1.17.2.34.3.5.17.29.33.56.5.84,1.67,2.8,3.28,5.39,4.75,7.69.1.15.19.3.29.45.01.02.02.04.04.06.15.24.3.47.45.7.12.19.24.38.36.56.09.14.18.29.27.42.13.2.25.39.38.59-.41,1.3-.53,2.64-.38,3.94-4.85-7.26-13.74-21.26-19.89-35.26C6.38,20.17,5.01,7.76,9.91.54,10.15.19,10.56-.02,10.99,0c.43.01.82.25,1.03.62l31.24,54.1-1.44,2.49L10.95,3.75Z"/>
        <path class="cls-2" d="M26.01,55.41c-.45-.78-.9-1.56-1.35-2.36.45.8.9,1.59,1.35,2.36Z"/>
      </g>
      <path class="cls-1" d="M24.66,53.05c.45.8.9,1.59,1.35,2.36-.45-.78-.9-1.56-1.35-2.36Z"/>
      <polygon class="cls-1" points="41.28 58.15 38.06 63.73 38.05 63.73 41.28 58.15"/>
      <path class="cls-1" d="M54.24,65.7c-.35.55-.69,1.08-1.02,1.59.33-.51.67-1.04,1.02-1.59Z"/>
      <polygon class="cls-1" points="39.18 91.47 38.33 90.98 38.34 90.98 39.18 91.47"/>
      <path class="cls-1" d="M83.51,131.17c.1.23.19.46.26.7-.07-.24-.16-.47-.26-.7Z"/>
      <path class="cls-1" d="M86.22,135.68c-.57,2.14-1.93,3.91-3.84,5.01-1.26.73-2.67,1.1-4.1,1.1-.72,0-1.44-.09-2.16-.28-2.14-.57-3.91-1.93-5.01-3.84l-26.58-46.03c-.34-.6-.14-1.36.45-1.7l.89-.51-2.63-4.38-2.63,4.38.88.51c.6.34.8,1.1.46,1.7l-26.58,46.03c-1.1,1.9-2.88,3.26-5.01,3.84-.71.19-1.44.28-2.16.28-1.43,0-2.83-.37-4.09-1.1-1.9-1.1-3.26-2.87-3.84-5.01-.57-2.13-.28-4.35.82-6.25l26.57-46.03c.17-.29.44-.5.76-.58.32-.09.66-.04.94.12l.9.52,2.15,1.24h0s6.03,3.48,6.03,3.48l3.34-5.55-1.16-1.92c.85.25,1.73.37,2.59.37.17,0,.35,0,.52-.02l.54.9s.02.04.04.06h0s3.69,6.16,3.69,6.16h0l6.03-3.48-3.86-6.68c.46-.5.87-1.06,1.22-1.67.12-.2.23-.41.33-.62l4.46,7.73.9-.52c.29-.17.63-.21.94-.12.32.08.59.29.75.58l26.58,46.03c1.1,1.9,1.39,4.12.82,6.25Z"/>
      <path class="cls-1" d="M45.68,73.03c-.37.65-.97,1.11-1.7,1.3-.72.19-1.48.1-2.12-.28-.65-.37-1.11-.97-1.3-1.7-.19-.72-.09-1.47.28-2.12.52-.9,1.46-1.4,2.43-1.4.47,0,.95.12,1.39.38,1.33.77,1.79,2.48,1.02,3.82Z"/>
      <path class="cls-1" d="M46.42,80.53c-.28.1-.56.19-.86.26.29-.07.57-.16.86-.26Z"/>
    </g>
  </g>
</svg>