<?xml version="1.0" encoding="UTF-8"?>
<svg id="Calque_2" data-name="Calque 2" xmlns="http://www.w3.org/2000/svg" viewBox="0 0 76.46 168.88">
  <defs>
    <style>
      .cls-1 {
        fill: #fbfcfd;
      }
    </style>
  </defs>
  <g id="Calque_1-2" data-name="Calque 1">
    <g>
      <path class="cls-1" d="M50.63,9.29L38.74,0l-12.42,9.38c-4.23,3.18-8.01,6.84-11.28,10.88-.5.6-.97,1.19-1.44,1.82C4.8,33.63-.11,47.96,0,62.73l.32,39.16,28.15-.25h.05s-.16-20.62-.16-20.62l-.06-6.35c0-.26,0-.52.03-.76.02-.17.04-.34.08-.52.05-.53.17-1.06.34-1.58.09-.24.17-.45.27-.67.1-.22.2-.43.29-.65.2-.43.47-.85.76-1.21.13-.18.29-.37.42-.55h.02c.15-.19.31-.36.5-.53.16-.17.34-.34.53-.49.19-.15.35-.29.55-.42.2-.13.37-.25.55-.35.25-.17.51-.32.78-.43.18-.1.39-.19.57-.27.12-.06.23-.09.36-.13l.34-.1c.43-.13.84-.23,1.27-.29.2-.04.43-.06.65-.08.21-.02.43-.04.65-.03l4.2-.04c.26,0,.5.01.76.03.5.03,1,.12,1.47.23.23.07.46.14.7.21.24.09.47.16.69.26.24.09.46.19.66.31.22.12.42.22.62.35.12.1.26.18.41.27.06.05.15.12.21.17.18.13.34.27.5.41.15.12.26.23.39.35.3.31.59.62.83.94.14.17.27.36.38.54.16.21.3.45.42.69v.04c.11.18.23.4.32.61.13.27.25.58.34.88v.04c.27.84.39,1.71.41,2.6l.22,26.98,25.69-.23-.32-37.92-.03-2.4c0-.23,0-.49,0-.72-.39-20.05-9.63-38.57-25.47-50.92Z"/>
      <path class="cls-1" d="M46.28,74.58l.1,12.19.12,14.79.03,5.19.05,5.79h-.02s.12,15.1.12,15.1l.23,27.85,6.1-.05c2.5-.03,4.54,1.99,4.55,4.49l.04,4.23c.01,2.5-1.99,4.54-4.49,4.57l-25.81.15c-2.48,0-4.53-2.02-4.54-4.52v-4.22c-.03-2.5,2-4.54,4.5-4.55l6.08-.02.03-27.93-.18-21.75-.15-19.58h.05s-.1-11.63-.1-11.63c-.03-2.5,1.99-4.54,4.49-4.55l4.23-.04c2.5-.01,4.54,1.99,4.55,4.49Z"/>
    </g>
  </g>
</svg>