<?xml version="1.0" encoding="UTF-8"?>
<svg id="Calque_2" data-name="Calque 2" xmlns="http://www.w3.org/2000/svg" viewBox="0 0 138.04 138.07">
  <defs>
    <style>
      .cls-1 {
        fill: #fbfcfd;
      }
    </style>
  </defs>
  <g id="Calque_1-2" data-name="Calque 1">
    <g>
      <g>
        <path class="cls-1" d="M65.45,0L0,65.48l22.58,22.58L88.03,22.61,65.45,0ZM27.57,79.04l-.77.77-4.22,4.22-11.25-11.25-2.06-2.06-1.74-1.74-2.06-2.06-1.46-1.46L65.45,4.05l10.45,10.45,3.17,3.17,2.03,2.03,2.91,2.91-56.43,56.43Z"/>
        <path class="cls-1" d="M22.18,83.63l-5.54-5.54c1.71-3.45,3.77-6.34,6.02-8.56,1.6-1.57,4.08-3.2,5.05-3.34.17.8.09,4.2-5.54,17.44Z"/>
        <path class="cls-1" d="M48.15,21.35c-4.54,7.42-9.71,14.47-15.44,21.01-8.05,9.25-17.24,17.53-27.23,24.58l-1.46-1.46L48.15,21.35Z"/>
        <path class="cls-1" d="M84.01,22.61l-21.55,21.55c2.68-4.48,5.59-8.79,8.73-12.93,3.08-4.02,6.39-7.88,9.9-11.53l2.91,2.91Z"/>
        <path class="cls-1" d="M79.07,17.67c-3.6,3.74-6.99,7.71-10.13,11.85-5.2,6.82-9.79,14.16-13.67,21.84l-19.92,19.92c5.88-9.96,12.22-19.7,18.9-29.09,6.82-9.51,14.1-18.84,21.66-27.69l3.17,3.17Z"/>
        <path class="cls-1" d="M73.87,12.47c-7.68,8.96-15.07,18.41-21.95,28.06-8.79,12.33-16.98,25.26-24.35,38.51l-.77.77c5.11-12.9,4.02-15.13,2.48-16.1-2.85-1.8-8.39,3.57-8.62,3.8-2.31,2.26-4.37,5.11-6.14,8.48l-3.2-3.2c9.05-6.11,24.41-17.67,37.28-33.4,7.96-9.76,14.84-20.44,20.38-31.8l4.88,4.88Z"/>
        <path class="cls-1" d="M66.85,5.45c-5.51,11.5-12.39,22.29-20.47,32.14-12.87,15.7-28.29,27.23-37.11,33.14l-1.74-1.74c10.05-7.16,19.24-15.47,27.35-24.75,8.16-9.31,15.19-19.58,20.95-30.57l9.62-9.62,1.4,1.4Z"/>
      </g>
      <g>
        <path class="cls-1" d="M107.21,8.82l-1.43,1.46-8.99,8.96L9.56,106.47l22.58,22.61L129.82,31.43l-22.61-22.61ZM47.27,109.92l-15.13,15.13-8.42-8.42-2-2.03-8.13-8.13,33.11-33.11,53.78-53.78,6.74-6.74,5.85,5.85,2.06,2.08,10.65,10.65L58.49,98.71l-11.22,11.22Z"/>
        <path class="cls-1" d="M46.7,73.36c-4.48,6.28-9.25,12.45-14.24,18.41-5.02,6.02-10.39,11.96-15.93,17.64l-2.94-2.94,33.11-33.11Z"/>
        <path class="cls-1" d="M125.77,31.43L58.49,98.71c7.65-10.53,15.96-20.75,24.86-30.49,12.65-13.82,26.43-26.66,40.99-38.22l1.43,1.43Z"/>
        <path class="cls-1" d="M87.66,32.4c-9.9,13.99-20.35,27.86-31.14,41.33-11.1,13.87-22.81,27.63-34.8,40.88l-3.2-3.2c5.62-5.74,11.05-11.73,16.13-17.81,8.25-9.88,15.9-20.27,22.69-30.88l30.31-30.31Z"/>
        <path class="cls-1" d="M122.31,27.97c-14.59,11.59-28.4,24.49-41.07,38.33-12.56,13.73-24.01,28.4-33.97,43.62l-15.13,15.13-1.34-1.34c9.96-15.98,21.47-31.46,34.2-45.98,20.41-23.32,43.02-41.87,55.58-51.49l1.74,1.74Z"/>
        <path class="cls-1" d="M118.54,24.21c-12.7,9.76-35.28,28.34-55.72,51.64-12.67,14.47-24.15,29.89-34.11,45.78l-5-5c12.07-13.33,23.86-27.15,35.02-41.13,14.16-17.67,27.72-36.02,40.3-54.49l1.43-1.43c-7.65,13.79-8.33,17.5-7.82,19.18.23.77.71,1.17,1.11,1.37.26.11.57.17.94.17,3.23,0,8.99-5.51,10.22-6.71,3.6-3.57,7.02-7.85,10.19-12.82l3.43,3.43Z"/>
        <path class="cls-1" d="M113.06,18.7c-3.14,5.02-6.57,9.33-10.13,12.87-2.68,2.63-6.25,5.31-7.56,5.88.17-1.57,1.86-6.79,12.1-24.35l5.59,5.59Z"/>
      </g>
      <g>
        <path class="cls-1" d="M115.43,50.01L49.98,115.46l22.61,22.61,65.45-65.45-22.61-22.61ZM72.59,134.04l-.43-.43-5.51-5.54-2.11-2.11-3.23-3.2-2.06-2.06-1.71-1.74-2.06-2.06-1.46-1.46,44.21-44.24.03-.03,7.62-7.62s.03-.03.03-.03l9.51-9.51,15.64,15.64,2.94,2.94-61.43,61.43Z"/>
        <path class="cls-1" d="M134.01,72.62l-21.55,21.55c2.68-4.48,5.59-8.82,8.73-12.93,3.08-4.02,6.39-7.91,9.88-11.56l2.94,2.94Z"/>
        <path class="cls-1" d="M98.25,71.22c-4.54,7.48-9.76,14.56-15.53,21.15-8.08,9.22-17.21,17.5-27.23,24.55l-1.46-1.46,44.21-44.24Z"/>
        <path class="cls-1" d="M116.86,55.46c-5.51,11.5-12.42,22.29-20.47,32.14-12.87,15.7-28.29,27.2-37.14,33.11l-1.71-1.74c10.05-7.14,19.21-15.44,27.32-24.72,8.19-9.36,15.27-19.7,21.04-30.68.03,0,.03-.03.03-.03l9.51-9.51,1.43,1.43Z"/>
        <path class="cls-1" d="M129.05,67.65c-3.57,3.74-6.99,7.74-10.13,11.85-5.2,6.85-9.82,14.21-13.67,21.89l-19.98,19.98c5.91-10.02,12.27-19.78,18.98-29.2,6.79-9.48,14.07-18.81,21.67-27.66l3.14,3.14Z"/>
        <path class="cls-1" d="M123.88,62.48c-7.71,8.96-15.1,18.41-21.95,28.03-8.79,12.33-16.98,25.29-24.35,38.53l-.77.77c5.14-12.93,4.02-15.13,2.48-16.1-2.85-1.83-8.39,3.54-8.65,3.77-2.31,2.28-4.37,5.11-6.11,8.48l-3.23-3.2c9.08-6.11,24.41-17.67,37.28-33.37,7.99-9.76,14.87-20.44,20.41-31.8l4.88,4.88Z"/>
        <path class="cls-1" d="M72.16,133.61l-5.51-5.54c1.71-3.45,3.74-6.31,6.02-8.53,1.6-1.57,4.08-3.2,5.02-3.37.2.83.11,4.22-5.54,17.44Z"/>
      </g>
    </g>
  </g>
</svg>