<?xml version="1.0" encoding="UTF-8"?>
<svg id="Calque_2" data-name="Calque 2" xmlns="http://www.w3.org/2000/svg" viewBox="0 0 119.89 119.89">
  <defs>
    <style>
      .cls-1 {
        fill: #fbfcfd;
      }
    </style>
  </defs>
  <g id="Calque_1-2" data-name="Calque 1">
    <g>
      <path class="cls-1" d="M119.89,88.98v12.98c0,1.77-.69,3.4-1.86,4.61-.02-1.42-.22-2.8-.58-4.12-.14-.53-.31-1.04-.5-1.55-.09-.25-.2-.5-.3-.75-.21-.49-.45-.97-.71-1.44-1.04-1.87-2.43-3.52-4.07-4.86-.41-.34-.84-.65-1.28-.95-.66-.44-1.36-.84-2.09-1.19s-1.48-.64-2.26-.88c-.52-.16-1.05-.3-1.59-.41-.27-.06-.54-.1-.82-.14-.82-.13-1.67-.19-2.52-.19-.29,0-.57,0-.86.02-.57.03-1.13.09-1.68.17-.56.08-1.1.2-1.63.34-1.07.28-2.1.65-3.07,1.12-.49.24-.96.49-1.42.77-.46.28-.91.58-1.34.9-.21.16-.42.33-.63.5-.41.34-.81.7-1.19,1.08-3.03,3.03-4.91,7.22-4.91,11.83,0,.59.03,1.18.09,1.75h-24.99c.52-1.83.79-3.74.79-5.69,0-2.85-.58-5.57-1.63-8.04-.26-.62-.55-1.22-.87-1.81-.48-.88-1.02-1.72-1.61-2.52-.2-.27-.4-.53-.62-.78-.42-.51-.87-1-1.33-1.47-1.17-1.17-2.48-2.2-3.9-3.07-1.14-.69-2.35-1.28-3.61-1.74-2.22-.81-4.61-1.26-7.1-1.26-.35,0-.7,0-1.04.02s-.69.04-1.03.08c-1.55.16-3.06.49-4.5.97-3.18,1.06-6.01,2.88-8.29,5.24-.09.09-.18.18-.27.27-3.45,3.7-5.57,8.65-5.57,14.1,0,1.73.22,3.41.62,5.02-.05-.02-.09-.05-.14-.07h0c-.69-.35-1.3-.83-1.83-1.4-1.09-1.18-1.77-2.76-1.77-4.48v-24.66c0-3.2,1.39-6.23,3.8-8.32,2.41-2.09,5.62-3.04,8.78-2.59l81.89,11.67c5.4.77,9.47,5.46,9.47,10.91Z"/>
      <path class="cls-1" d="M102.25,67.04v6.14l-3.68-.52-55.29-7.88-3.73-.53c1.18-3.8,4.71-6.49,8.85-6.49h44.57c5.12,0,9.28,4.16,9.28,9.28Z"/>
      <path class="cls-1" d="M30.7,62.98l-3.77-.38c-1.24,0-2.46.17-3.65.48l-3.51,1.42L12.5,15.08,3.09,10.47c-1.32-.65-2.31-1.77-2.79-3.17-.48-1.4-.38-2.89.27-4.21C1.21,1.77,2.34.78,3.73.3c1.39-.48,2.89-.38,4.21.26l12.02,5.88c1.64.8,2.77,2.35,3.03,4.16l7.7,52.38Z"/>
      <path class="cls-1" d="M33.19,83.28s-.02.06-.02.08c-3.13,1.04-5.96,2.82-8.26,5.16,2.27-2.36,5.11-4.18,8.29-5.24Z"/>
      <path class="cls-1" d="M114.36,106.82c0,1.49-.25,2.92-.71,4.25-1.77,5.13-6.64,8.82-12.36,8.82-6.5,0-11.91-4.77-12.9-10.99-.11-.68-.16-1.37-.16-2.08,0-7.2,5.86-13.06,13.07-13.06s13.07,5.86,13.07,13.06Z"/>
      <path class="cls-1" d="M56.49,105.47c-.74,5.01-3.6,9.19-7.54,11.76,0,0,0,0,0,0-.09.03-.17.08-.26.13-2.68,1.66-5.76,2.53-8.93,2.53-9.38,0-17-7.63-17-17,0-4.54,1.79-8.67,4.7-11.72.11-.11.21-.22.33-.33.11-.11.23-.22.35-.33,3.65-3.36,8.73-5.11,14.01-4.33,9.28,1.36,15.71,10.02,14.35,19.3Z"/>
    </g>
  </g>
</svg>